<svg width="403" height="381" viewBox="0 0 403 381" fill="none" xmlns="http://www.w3.org/2000/svg">
<path d="M166.803 47.1612C166.635 47.1612 166.497 47.1102 166.389 47.0082C166.281 46.9002 166.227 46.7682 166.227 46.6122V41.3922H167.397V46.6122C167.397 46.7682 167.34 46.9002 167.226 47.0082C167.118 47.1102 166.977 47.1612 166.803 47.1612ZM164.814 41.8962C164.658 41.8962 164.526 41.8482 164.418 41.7522C164.316 41.6562 164.265 41.5302 164.265 41.3742C164.265 41.2182 164.316 41.0952 164.418 41.0052C164.526 40.9092 164.658 40.8612 164.814 40.8612H168.81C168.966 40.8612 169.095 40.9092 169.197 41.0052C169.305 41.1012 169.359 41.2272 169.359 41.3832C169.359 41.5392 169.305 41.6652 169.197 41.7612C169.095 41.8512 168.966 41.8962 168.81 41.8962H164.814ZM170.853 40.8612H173.868C174.024 40.8612 174.153 40.9122 174.255 41.0142C174.363 41.1102 174.417 41.2362 174.417 41.3922C174.417 41.5422 174.363 41.6652 174.255 41.7612C174.153 41.8512 174.024 41.8962 173.868 41.8962H171.348L171.429 41.7432V43.4982L171.357 43.4262H173.463C173.619 43.4262 173.748 43.4772 173.85 43.5792C173.958 43.6752 174.012 43.8012 174.012 43.9572C174.012 44.1072 173.958 44.2302 173.85 44.3262C173.748 44.4162 173.619 44.4612 173.463 44.4612H171.384L171.429 44.3892V46.2072L171.357 46.1262H173.868C174.024 46.1262 174.153 46.1802 174.255 46.2882C174.363 46.3902 174.417 46.5102 174.417 46.6482C174.417 46.7982 174.363 46.9212 174.255 47.0172C174.153 47.1132 174.024 47.1612 173.868 47.1612H170.853C170.697 47.1612 170.565 47.1102 170.457 47.0082C170.355 46.9002 170.304 46.7682 170.304 46.6122V41.4102C170.304 41.2542 170.355 41.1252 170.457 41.0232C170.565 40.9152 170.697 40.8612 170.853 40.8612ZM176.102 47.1612C175.934 47.1612 175.784 47.1102 175.652 47.0082C175.52 46.9002 175.454 46.7682 175.454 46.6122V41.4102C175.454 41.2542 175.505 41.1252 175.607 41.0232C175.715 40.9152 175.847 40.8612 176.003 40.8612H178.595C178.907 40.8612 179.198 40.9452 179.468 41.1132C179.744 41.2752 179.966 41.5032 180.134 41.7972C180.302 42.0852 180.386 42.4182 180.386 42.7962C180.386 43.0242 180.338 43.2462 180.242 43.4622C180.152 43.6782 180.026 43.8732 179.864 44.0472C179.708 44.2212 179.531 44.3562 179.333 44.4522L179.342 44.2452C179.51 44.3352 179.648 44.4432 179.756 44.5692C179.87 44.6892 179.957 44.8212 180.017 44.9652C180.083 45.1032 180.122 45.2532 180.134 45.4152C180.158 45.5652 180.173 45.6972 180.179 45.8112C180.191 45.9252 180.209 46.0212 180.233 46.0992C180.263 46.1772 180.317 46.2372 180.395 46.2792C180.527 46.3572 180.608 46.4712 180.638 46.6212C180.674 46.7652 180.641 46.8942 180.539 47.0082C180.473 47.0862 180.389 47.1372 180.287 47.1612C180.185 47.1792 180.083 47.1792 179.981 47.1612C179.879 47.1372 179.795 47.1072 179.729 47.0712C179.627 47.0112 179.525 46.9242 179.423 46.8102C179.321 46.6902 179.237 46.5312 179.171 46.3332C179.111 46.1352 179.081 45.8802 179.081 45.5682C179.081 45.4662 179.063 45.3732 179.027 45.2892C178.991 45.1992 178.94 45.1242 178.874 45.0642C178.808 44.9982 178.724 44.9502 178.622 44.9202C178.52 44.8842 178.4 44.8662 178.262 44.8662H176.444L176.579 44.6592V46.6122C176.579 46.7682 176.537 46.9002 176.453 47.0082C176.369 47.1102 176.252 47.1612 176.102 47.1612ZM176.453 43.9392H178.55C178.658 43.9392 178.763 43.8912 178.865 43.7952C178.967 43.6932 179.051 43.5582 179.117 43.3902C179.183 43.2162 179.216 43.0272 179.216 42.8232C179.216 42.5592 179.144 42.3402 179 42.1662C178.862 41.9862 178.712 41.8962 178.55 41.8962H176.471L176.579 41.6082V44.1552L176.453 43.9392ZM182.281 47.1612C182.113 47.1612 181.963 47.1102 181.831 47.0082C181.699 46.9002 181.633 46.7682 181.633 46.6122V41.4102C181.633 41.2542 181.684 41.1252 181.786 41.0232C181.894 40.9152 182.026 40.8612 182.182 40.8612H184.774C185.086 40.8612 185.377 40.9452 185.647 41.1132C185.923 41.2752 186.145 41.5032 186.313 41.7972C186.481 42.0852 186.565 42.4182 186.565 42.7962C186.565 43.0242 186.517 43.2462 186.421 43.4622C186.331 43.6782 186.205 43.8732 186.043 44.0472C185.887 44.2212 185.71 44.3562 185.512 44.4522L185.521 44.2452C185.689 44.3352 185.827 44.4432 185.935 44.5692C186.049 44.6892 186.136 44.8212 186.196 44.9652C186.262 45.1032 186.301 45.2532 186.313 45.4152C186.337 45.5652 186.352 45.6972 186.358 45.8112C186.37 45.9252 186.388 46.0212 186.412 46.0992C186.442 46.1772 186.496 46.2372 186.574 46.2792C186.706 46.3572 186.787 46.4712 186.817 46.6212C186.853 46.7652 186.82 46.8942 186.718 47.0082C186.652 47.0862 186.568 47.1372 186.466 47.1612C186.364 47.1792 186.262 47.1792 186.16 47.1612C186.058 47.1372 185.974 47.1072 185.908 47.0712C185.806 47.0112 185.704 46.9242 185.602 46.8102C185.5 46.6902 185.416 46.5312 185.35 46.3332C185.29 46.1352 185.26 45.8802 185.26 45.5682C185.26 45.4662 185.242 45.3732 185.206 45.2892C185.17 45.1992 185.119 45.1242 185.053 45.0642C184.987 44.9982 184.903 44.9502 184.801 44.9202C184.699 44.8842 184.579 44.8662 184.441 44.8662H182.623L182.758 44.6592V46.6122C182.758 46.7682 182.716 46.9002 182.632 47.0082C182.548 47.1102 182.431 47.1612 182.281 47.1612ZM182.632 43.9392H184.729C184.837 43.9392 184.942 43.8912 185.044 43.7952C185.146 43.6932 185.23 43.5582 185.296 43.3902C185.362 43.2162 185.395 43.0272 185.395 42.8232C185.395 42.5592 185.323 42.3402 185.179 42.1662C185.041 41.9862 184.891 41.8962 184.729 41.8962H182.65L182.758 41.6082V44.1552L182.632 43.9392ZM190.125 42.2742L188.181 46.8462C188.139 46.9602 188.073 47.0502 187.983 47.1162C187.899 47.1762 187.806 47.2062 187.704 47.2062C187.542 47.2062 187.422 47.1612 187.344 47.0712C187.266 46.9812 187.227 46.8702 187.227 46.7382C187.227 46.6842 187.236 46.6272 187.254 46.5672L189.495 41.1852C189.543 41.0652 189.615 40.9722 189.711 40.9062C189.813 40.8402 189.921 40.8132 190.035 40.8252C190.143 40.8252 190.242 40.8582 190.332 40.9242C190.428 40.9842 190.497 41.0712 190.539 41.1852L192.753 46.4592C192.783 46.5372 192.798 46.6092 192.798 46.6752C192.798 46.8372 192.744 46.9662 192.636 47.0622C192.534 47.1582 192.42 47.2062 192.294 47.2062C192.186 47.2062 192.087 47.1732 191.997 47.1072C191.913 47.0412 191.847 46.9512 191.799 46.8372L189.864 42.3282L190.125 42.2742ZM188.46 45.7482L188.955 44.7132H191.385L191.556 45.7482H188.46ZM197.926 41.1672C198.082 41.2452 198.172 41.3682 198.196 41.5362C198.226 41.7042 198.184 41.8572 198.07 41.9952C197.992 42.1032 197.89 42.1632 197.764 42.1752C197.644 42.1872 197.521 42.1632 197.395 42.1032C197.251 42.0372 197.098 41.9862 196.936 41.9502C196.78 41.9142 196.615 41.8962 196.441 41.8962C196.117 41.8962 195.826 41.9472 195.568 42.0492C195.316 42.1512 195.1 42.2982 194.92 42.4902C194.74 42.6762 194.602 42.8982 194.506 43.1562C194.416 43.4142 194.371 43.6992 194.371 44.0112C194.371 44.3772 194.422 44.6952 194.524 44.9652C194.632 45.2352 194.779 45.4602 194.965 45.6402C195.151 45.8202 195.37 45.9552 195.622 46.0452C195.874 46.1292 196.147 46.1712 196.441 46.1712C196.603 46.1712 196.765 46.1562 196.927 46.1262C197.089 46.0962 197.245 46.0422 197.395 45.9642C197.521 45.9042 197.644 45.8832 197.764 45.9012C197.89 45.9192 197.995 45.9822 198.079 46.0902C198.199 46.2402 198.241 46.3962 198.205 46.5582C198.175 46.7142 198.085 46.8282 197.935 46.9002C197.779 46.9782 197.617 47.0442 197.449 47.0982C197.287 47.1462 197.122 47.1822 196.954 47.2062C196.786 47.2362 196.615 47.2512 196.441 47.2512C196.009 47.2512 195.598 47.1822 195.208 47.0442C194.824 46.9062 194.479 46.7022 194.173 46.4322C193.873 46.1622 193.636 45.8262 193.462 45.4242C193.288 45.0162 193.201 44.5452 193.201 44.0112C193.201 43.5492 193.279 43.1232 193.435 42.7332C193.597 42.3432 193.822 42.0072 194.11 41.7252C194.404 41.4372 194.749 41.2152 195.145 41.0592C195.541 40.8972 195.973 40.8162 196.441 40.8162C196.705 40.8162 196.963 40.8462 197.215 40.9062C197.467 40.9662 197.704 41.0532 197.926 41.1672ZM199.708 40.8612H202.723C202.879 40.8612 203.008 40.9122 203.11 41.0142C203.218 41.1102 203.272 41.2362 203.272 41.3922C203.272 41.5422 203.218 41.6652 203.11 41.7612C203.008 41.8512 202.879 41.8962 202.723 41.8962H200.203L200.284 41.7432V43.4982L200.212 43.4262H202.318C202.474 43.4262 202.603 43.4772 202.705 43.5792C202.813 43.6752 202.867 43.8012 202.867 43.9572C202.867 44.1072 202.813 44.2302 202.705 44.3262C202.603 44.4162 202.474 44.4612 202.318 44.4612H200.239L200.284 44.3892V46.2072L200.212 46.1262H202.723C202.879 46.1262 203.008 46.1802 203.11 46.2882C203.218 46.3902 203.272 46.5102 203.272 46.6482C203.272 46.7982 203.218 46.9212 203.11 47.0172C203.008 47.1132 202.879 47.1612 202.723 47.1612H199.708C199.552 47.1612 199.42 47.1102 199.312 47.0082C199.21 46.9002 199.159 46.7682 199.159 46.6122V41.4102C199.159 41.2542 199.21 41.1252 199.312 41.0232C199.42 40.9152 199.552 40.8612 199.708 40.8612Z" fill="white"/>
<path d="M306.095 318.321C306.671 318.321 307.1 318.456 307.382 318.726C307.664 318.996 307.805 319.395 307.805 319.923C307.805 320.205 307.736 320.454 307.598 320.67C307.46 320.88 307.256 321.045 306.986 321.165C306.716 321.279 306.383 321.336 305.987 321.336L306.023 320.931C306.209 320.931 306.422 320.958 306.662 321.012C306.902 321.06 307.133 321.15 307.355 321.282C307.583 321.408 307.769 321.588 307.913 321.822C308.063 322.05 308.138 322.344 308.138 322.704C308.138 323.1 308.072 323.424 307.94 323.676C307.814 323.928 307.646 324.123 307.436 324.261C307.226 324.399 307.001 324.495 306.761 324.549C306.521 324.597 306.29 324.621 306.068 324.621H303.827C303.671 324.621 303.539 324.57 303.431 324.468C303.329 324.36 303.278 324.228 303.278 324.072V318.87C303.278 318.714 303.329 318.585 303.431 318.483C303.539 318.375 303.671 318.321 303.827 318.321H306.095ZM305.933 319.383H304.331L304.448 319.239V320.868L304.34 320.787H305.96C306.134 320.787 306.29 320.73 306.428 320.616C306.566 320.502 306.635 320.337 306.635 320.121C306.635 319.863 306.569 319.677 306.437 319.563C306.311 319.443 306.143 319.383 305.933 319.383ZM306.005 321.849H304.367L304.448 321.777V323.676L304.358 323.586H306.068C306.344 323.586 306.563 323.514 306.725 323.37C306.887 323.22 306.968 322.998 306.968 322.704C306.968 322.434 306.914 322.239 306.806 322.119C306.698 321.999 306.569 321.924 306.419 321.894C306.269 321.864 306.131 321.849 306.005 321.849ZM309.724 318.321H312.739C312.895 318.321 313.024 318.372 313.126 318.474C313.234 318.57 313.288 318.696 313.288 318.852C313.288 319.002 313.234 319.125 313.126 319.221C313.024 319.311 312.895 319.356 312.739 319.356H310.219L310.3 319.203V320.958L310.228 320.886H312.334C312.49 320.886 312.619 320.937 312.721 321.039C312.829 321.135 312.883 321.261 312.883 321.417C312.883 321.567 312.829 321.69 312.721 321.786C312.619 321.876 312.49 321.921 312.334 321.921H310.255L310.3 321.849V323.667L310.228 323.586H312.739C312.895 323.586 313.024 323.64 313.126 323.748C313.234 323.85 313.288 323.97 313.288 324.108C313.288 324.258 313.234 324.381 313.126 324.477C313.024 324.573 312.895 324.621 312.739 324.621H309.724C309.568 324.621 309.436 324.57 309.328 324.468C309.226 324.36 309.175 324.228 309.175 324.072V318.87C309.175 318.714 309.226 318.585 309.328 318.483C309.436 318.375 309.568 318.321 309.724 318.321ZM317.026 318.321C317.458 318.321 317.842 318.402 318.178 318.564C318.514 318.726 318.796 318.954 319.024 319.248C319.258 319.536 319.432 319.872 319.546 320.256C319.666 320.634 319.726 321.039 319.726 321.471C319.726 322.053 319.621 322.584 319.411 323.064C319.201 323.538 318.895 323.916 318.493 324.198C318.097 324.48 317.608 324.621 317.026 324.621H314.875C314.719 324.621 314.587 324.57 314.479 324.468C314.377 324.36 314.326 324.228 314.326 324.072V318.87C314.326 318.714 314.377 318.585 314.479 318.483C314.587 318.375 314.719 318.321 314.875 318.321H317.026ZM316.936 323.586C317.314 323.586 317.623 323.49 317.863 323.298C318.103 323.1 318.277 322.842 318.385 322.524C318.499 322.2 318.556 321.849 318.556 321.471C318.556 321.189 318.523 320.922 318.457 320.67C318.397 320.412 318.301 320.187 318.169 319.995C318.037 319.797 317.869 319.641 317.665 319.527C317.461 319.413 317.218 319.356 316.936 319.356H315.361L315.451 319.275V323.685L315.397 323.586H316.936ZM321.407 324.621C321.239 324.621 321.089 324.57 320.957 324.468C320.825 324.36 320.759 324.228 320.759 324.072V318.87C320.759 318.714 320.81 318.585 320.912 318.483C321.02 318.375 321.152 318.321 321.308 318.321H323.9C324.212 318.321 324.503 318.405 324.773 318.573C325.049 318.735 325.271 318.963 325.439 319.257C325.607 319.545 325.691 319.878 325.691 320.256C325.691 320.484 325.643 320.706 325.547 320.922C325.457 321.138 325.331 321.333 325.169 321.507C325.013 321.681 324.836 321.816 324.638 321.912L324.647 321.705C324.815 321.795 324.953 321.903 325.061 322.029C325.175 322.149 325.262 322.281 325.322 322.425C325.388 322.563 325.427 322.713 325.439 322.875C325.463 323.025 325.478 323.157 325.484 323.271C325.496 323.385 325.514 323.481 325.538 323.559C325.568 323.637 325.622 323.697 325.7 323.739C325.832 323.817 325.913 323.931 325.943 324.081C325.979 324.225 325.946 324.354 325.844 324.468C325.778 324.546 325.694 324.597 325.592 324.621C325.49 324.639 325.388 324.639 325.286 324.621C325.184 324.597 325.1 324.567 325.034 324.531C324.932 324.471 324.83 324.384 324.728 324.27C324.626 324.15 324.542 323.991 324.476 323.793C324.416 323.595 324.386 323.34 324.386 323.028C324.386 322.926 324.368 322.833 324.332 322.749C324.296 322.659 324.245 322.584 324.179 322.524C324.113 322.458 324.029 322.41 323.927 322.38C323.825 322.344 323.705 322.326 323.567 322.326H321.749L321.884 322.119V324.072C321.884 324.228 321.842 324.36 321.758 324.468C321.674 324.57 321.557 324.621 321.407 324.621ZM321.758 321.399H323.855C323.963 321.399 324.068 321.351 324.17 321.255C324.272 321.153 324.356 321.018 324.422 320.85C324.488 320.676 324.521 320.487 324.521 320.283C324.521 320.019 324.449 319.8 324.305 319.626C324.167 319.446 324.017 319.356 323.855 319.356H321.776L321.884 319.068V321.615L321.758 321.399ZM332.646 321.471C332.646 321.921 332.571 322.341 332.421 322.731C332.271 323.121 332.058 323.466 331.782 323.766C331.512 324.06 331.188 324.291 330.81 324.459C330.438 324.627 330.03 324.711 329.586 324.711C329.142 324.711 328.734 324.627 328.362 324.459C327.99 324.291 327.666 324.06 327.39 323.766C327.12 323.466 326.91 323.121 326.76 322.731C326.61 322.341 326.535 321.921 326.535 321.471C326.535 321.021 326.61 320.601 326.76 320.211C326.91 319.821 327.12 319.479 327.39 319.185C327.666 318.885 327.99 318.651 328.362 318.483C328.734 318.315 329.142 318.231 329.586 318.231C330.03 318.231 330.438 318.315 330.81 318.483C331.188 318.651 331.512 318.885 331.782 319.185C332.058 319.479 332.271 319.821 332.421 320.211C332.571 320.601 332.646 321.021 332.646 321.471ZM331.476 321.471C331.476 321.069 331.395 320.706 331.233 320.382C331.071 320.052 330.849 319.791 330.567 319.599C330.285 319.407 329.958 319.311 329.586 319.311C329.214 319.311 328.887 319.407 328.605 319.599C328.323 319.791 328.101 320.049 327.939 320.373C327.783 320.697 327.705 321.063 327.705 321.471C327.705 321.873 327.783 322.239 327.939 322.569C328.101 322.893 328.323 323.151 328.605 323.343C328.887 323.535 329.214 323.631 329.586 323.631C329.958 323.631 330.285 323.535 330.567 323.343C330.849 323.151 331.071 322.893 331.233 322.569C331.395 322.239 331.476 321.873 331.476 321.471ZM339.475 321.471C339.475 321.921 339.4 322.341 339.25 322.731C339.1 323.121 338.887 323.466 338.611 323.766C338.341 324.06 338.017 324.291 337.639 324.459C337.267 324.627 336.859 324.711 336.415 324.711C335.971 324.711 335.563 324.627 335.191 324.459C334.819 324.291 334.495 324.06 334.219 323.766C333.949 323.466 333.739 323.121 333.589 322.731C333.439 322.341 333.364 321.921 333.364 321.471C333.364 321.021 333.439 320.601 333.589 320.211C333.739 319.821 333.949 319.479 334.219 319.185C334.495 318.885 334.819 318.651 335.191 318.483C335.563 318.315 335.971 318.231 336.415 318.231C336.859 318.231 337.267 318.315 337.639 318.483C338.017 318.651 338.341 318.885 338.611 319.185C338.887 319.479 339.1 319.821 339.25 320.211C339.4 320.601 339.475 321.021 339.475 321.471ZM338.305 321.471C338.305 321.069 338.224 320.706 338.062 320.382C337.9 320.052 337.678 319.791 337.396 319.599C337.114 319.407 336.787 319.311 336.415 319.311C336.043 319.311 335.716 319.407 335.434 319.599C335.152 319.791 334.93 320.049 334.768 320.373C334.612 320.697 334.534 321.063 334.534 321.471C334.534 321.873 334.612 322.239 334.768 322.569C334.93 322.893 335.152 323.151 335.434 323.343C335.716 323.535 336.043 323.631 336.415 323.631C336.787 323.631 337.114 323.535 337.396 323.343C337.678 323.151 337.9 322.893 338.062 322.569C338.224 322.239 338.305 321.873 338.305 321.471ZM341.075 318.312C341.159 318.312 341.246 318.336 341.336 318.384C341.432 318.426 341.504 318.483 341.552 318.555L343.739 321.921L343.289 321.903L345.53 318.555C345.644 318.393 345.791 318.312 345.971 318.312C346.115 318.312 346.244 318.363 346.358 318.465C346.472 318.567 346.529 318.699 346.529 318.861V324.072C346.529 324.228 346.478 324.36 346.376 324.468C346.274 324.57 346.139 324.621 345.971 324.621C345.803 324.621 345.665 324.57 345.557 324.468C345.455 324.36 345.404 324.228 345.404 324.072V319.833L345.755 319.914L343.919 322.713C343.865 322.779 343.796 322.836 343.712 322.884C343.634 322.932 343.553 322.953 343.469 322.947C343.391 322.953 343.31 322.932 343.226 322.884C343.148 322.836 343.082 322.779 343.028 322.713L341.309 319.995L341.543 319.518V324.072C341.543 324.228 341.495 324.36 341.399 324.468C341.303 324.57 341.177 324.621 341.021 324.621C340.871 324.621 340.748 324.57 340.652 324.468C340.556 324.36 340.508 324.228 340.508 324.072V318.861C340.508 318.711 340.562 318.582 340.67 318.474C340.784 318.366 340.919 318.312 341.075 318.312Z" fill="white"/>
<path d="M218.595 288.235C219.027 288.235 219.411 288.316 219.747 288.478C220.083 288.64 220.365 288.868 220.593 289.162C220.827 289.45 221.001 289.786 221.115 290.17C221.235 290.548 221.295 290.953 221.295 291.385C221.295 291.967 221.19 292.498 220.98 292.978C220.77 293.452 220.464 293.83 220.062 294.112C219.666 294.394 219.177 294.535 218.595 294.535H216.444C216.288 294.535 216.156 294.484 216.048 294.382C215.946 294.274 215.895 294.142 215.895 293.986V288.784C215.895 288.628 215.946 288.499 216.048 288.397C216.156 288.289 216.288 288.235 216.444 288.235H218.595ZM218.505 293.5C218.883 293.5 219.192 293.404 219.432 293.212C219.672 293.014 219.846 292.756 219.954 292.438C220.068 292.114 220.125 291.763 220.125 291.385C220.125 291.103 220.092 290.836 220.026 290.584C219.966 290.326 219.87 290.101 219.738 289.909C219.606 289.711 219.438 289.555 219.234 289.441C219.03 289.327 218.787 289.27 218.505 289.27H216.93L217.02 289.189V293.599L216.966 293.5H218.505ZM222.977 294.535C222.809 294.535 222.659 294.484 222.527 294.382C222.395 294.274 222.329 294.142 222.329 293.986V288.784C222.329 288.628 222.38 288.499 222.482 288.397C222.59 288.289 222.722 288.235 222.878 288.235H225.47C225.782 288.235 226.073 288.319 226.343 288.487C226.619 288.649 226.841 288.877 227.009 289.171C227.177 289.459 227.261 289.792 227.261 290.17C227.261 290.398 227.213 290.62 227.117 290.836C227.027 291.052 226.901 291.247 226.739 291.421C226.583 291.595 226.406 291.73 226.208 291.826L226.217 291.619C226.385 291.709 226.523 291.817 226.631 291.943C226.745 292.063 226.832 292.195 226.892 292.339C226.958 292.477 226.997 292.627 227.009 292.789C227.033 292.939 227.048 293.071 227.054 293.185C227.066 293.299 227.084 293.395 227.108 293.473C227.138 293.551 227.192 293.611 227.27 293.653C227.402 293.731 227.483 293.845 227.513 293.995C227.549 294.139 227.516 294.268 227.414 294.382C227.348 294.46 227.264 294.511 227.162 294.535C227.06 294.553 226.958 294.553 226.856 294.535C226.754 294.511 226.67 294.481 226.604 294.445C226.502 294.385 226.4 294.298 226.298 294.184C226.196 294.064 226.112 293.905 226.046 293.707C225.986 293.509 225.956 293.254 225.956 292.942C225.956 292.84 225.938 292.747 225.902 292.663C225.866 292.573 225.815 292.498 225.749 292.438C225.683 292.372 225.599 292.324 225.497 292.294C225.395 292.258 225.275 292.24 225.137 292.24H223.319L223.454 292.033V293.986C223.454 294.142 223.412 294.274 223.328 294.382C223.244 294.484 223.127 294.535 222.977 294.535ZM223.328 291.313H225.425C225.533 291.313 225.638 291.265 225.74 291.169C225.842 291.067 225.926 290.932 225.992 290.764C226.058 290.59 226.091 290.401 226.091 290.197C226.091 289.933 226.019 289.714 225.875 289.54C225.737 289.36 225.587 289.27 225.425 289.27H223.346L223.454 288.982V291.529L223.328 291.313ZM229.056 288.235H232.071C232.227 288.235 232.356 288.286 232.458 288.388C232.566 288.484 232.62 288.61 232.62 288.766C232.62 288.916 232.566 289.039 232.458 289.135C232.356 289.225 232.227 289.27 232.071 289.27H229.551L229.632 289.117V290.872L229.56 290.8H231.666C231.822 290.8 231.951 290.851 232.053 290.953C232.161 291.049 232.215 291.175 232.215 291.331C232.215 291.481 232.161 291.604 232.053 291.7C231.951 291.79 231.822 291.835 231.666 291.835H229.587L229.632 291.763V293.581L229.56 293.5H232.071C232.227 293.5 232.356 293.554 232.458 293.662C232.566 293.764 232.62 293.884 232.62 294.022C232.62 294.172 232.566 294.295 232.458 294.391C232.356 294.487 232.227 294.535 232.071 294.535H229.056C228.9 294.535 228.768 294.484 228.66 294.382C228.558 294.274 228.507 294.142 228.507 293.986V288.784C228.507 288.628 228.558 288.499 228.66 288.397C228.768 288.289 228.9 288.235 229.056 288.235ZM235.683 294.625C235.263 294.625 234.885 294.574 234.549 294.472C234.213 294.364 233.892 294.178 233.586 293.914C233.508 293.848 233.448 293.773 233.406 293.689C233.364 293.605 233.343 293.521 233.343 293.437C233.343 293.299 233.391 293.179 233.487 293.077C233.589 292.969 233.715 292.915 233.865 292.915C233.979 292.915 234.081 292.951 234.171 293.023C234.399 293.209 234.624 293.35 234.846 293.446C235.074 293.542 235.353 293.59 235.683 293.59C235.905 293.59 236.109 293.557 236.295 293.491C236.481 293.419 236.631 293.326 236.745 293.212C236.859 293.092 236.916 292.957 236.916 292.807C236.916 292.627 236.862 292.474 236.754 292.348C236.646 292.222 236.481 292.117 236.259 292.033C236.037 291.943 235.755 291.874 235.413 291.826C235.089 291.778 234.804 291.706 234.558 291.61C234.312 291.508 234.105 291.382 233.937 291.232C233.775 291.076 233.652 290.896 233.568 290.692C233.484 290.482 233.442 290.248 233.442 289.99C233.442 289.6 233.541 289.267 233.739 288.991C233.943 288.715 234.216 288.505 234.558 288.361C234.9 288.217 235.278 288.145 235.692 288.145C236.082 288.145 236.442 288.205 236.772 288.325C237.108 288.439 237.381 288.586 237.591 288.766C237.765 288.904 237.852 289.063 237.852 289.243C237.852 289.375 237.801 289.495 237.699 289.603C237.597 289.711 237.477 289.765 237.339 289.765C237.249 289.765 237.168 289.738 237.096 289.684C237 289.6 236.871 289.522 236.709 289.45C236.547 289.372 236.376 289.309 236.196 289.261C236.016 289.207 235.848 289.18 235.692 289.18C235.434 289.18 235.215 289.213 235.035 289.279C234.861 289.345 234.729 289.435 234.639 289.549C234.549 289.663 234.504 289.795 234.504 289.945C234.504 290.125 234.555 290.275 234.657 290.395C234.765 290.509 234.918 290.602 235.116 290.674C235.314 290.74 235.551 290.8 235.827 290.854C236.187 290.92 236.502 290.998 236.772 291.088C237.048 291.178 237.276 291.295 237.456 291.439C237.636 291.577 237.771 291.754 237.861 291.97C237.951 292.18 237.996 292.438 237.996 292.744C237.996 293.134 237.888 293.47 237.672 293.752C237.456 294.034 237.171 294.25 236.817 294.4C236.469 294.55 236.091 294.625 235.683 294.625ZM241.053 294.625C240.633 294.625 240.255 294.574 239.919 294.472C239.583 294.364 239.262 294.178 238.956 293.914C238.878 293.848 238.818 293.773 238.776 293.689C238.734 293.605 238.713 293.521 238.713 293.437C238.713 293.299 238.761 293.179 238.857 293.077C238.959 292.969 239.085 292.915 239.235 292.915C239.349 292.915 239.451 292.951 239.541 293.023C239.769 293.209 239.994 293.35 240.216 293.446C240.444 293.542 240.723 293.59 241.053 293.59C241.275 293.59 241.479 293.557 241.665 293.491C241.851 293.419 242.001 293.326 242.115 293.212C242.229 293.092 242.286 292.957 242.286 292.807C242.286 292.627 242.232 292.474 242.124 292.348C242.016 292.222 241.851 292.117 241.629 292.033C241.407 291.943 241.125 291.874 240.783 291.826C240.459 291.778 240.174 291.706 239.928 291.61C239.682 291.508 239.475 291.382 239.307 291.232C239.145 291.076 239.022 290.896 238.938 290.692C238.854 290.482 238.812 290.248 238.812 289.99C238.812 289.6 238.911 289.267 239.109 288.991C239.313 288.715 239.586 288.505 239.928 288.361C240.27 288.217 240.648 288.145 241.062 288.145C241.452 288.145 241.812 288.205 242.142 288.325C242.478 288.439 242.751 288.586 242.961 288.766C243.135 288.904 243.222 289.063 243.222 289.243C243.222 289.375 243.171 289.495 243.069 289.603C242.967 289.711 242.847 289.765 242.709 289.765C242.619 289.765 242.538 289.738 242.466 289.684C242.37 289.6 242.241 289.522 242.079 289.45C241.917 289.372 241.746 289.309 241.566 289.261C241.386 289.207 241.218 289.18 241.062 289.18C240.804 289.18 240.585 289.213 240.405 289.279C240.231 289.345 240.099 289.435 240.009 289.549C239.919 289.663 239.874 289.795 239.874 289.945C239.874 290.125 239.925 290.275 240.027 290.395C240.135 290.509 240.288 290.602 240.486 290.674C240.684 290.74 240.921 290.8 241.197 290.854C241.557 290.92 241.872 290.998 242.142 291.088C242.418 291.178 242.646 291.295 242.826 291.439C243.006 291.577 243.141 291.754 243.231 291.97C243.321 292.18 243.366 292.438 243.366 292.744C243.366 293.134 243.258 293.47 243.042 293.752C242.826 294.034 242.541 294.25 242.187 294.4C241.839 294.55 241.461 294.625 241.053 294.625ZM245.523 293.986C245.523 294.142 245.466 294.274 245.352 294.382C245.238 294.484 245.106 294.535 244.956 294.535C244.788 294.535 244.653 294.484 244.551 294.382C244.449 294.274 244.398 294.142 244.398 293.986V288.784C244.398 288.628 244.452 288.499 244.56 288.397C244.668 288.289 244.806 288.235 244.974 288.235C245.118 288.235 245.244 288.289 245.352 288.397C245.466 288.499 245.523 288.628 245.523 288.784V293.986ZM251.655 288.235C251.799 288.235 251.916 288.283 252.006 288.379C252.096 288.475 252.141 288.595 252.141 288.739V293.986C252.141 294.142 252.087 294.274 251.979 294.382C251.877 294.484 251.748 294.535 251.592 294.535C251.514 294.535 251.433 294.523 251.349 294.499C251.271 294.469 251.211 294.43 251.169 294.382L247.632 289.891L247.866 289.747V294.031C247.866 294.175 247.818 294.295 247.722 294.391C247.632 294.487 247.512 294.535 247.362 294.535C247.218 294.535 247.101 294.487 247.011 294.391C246.921 294.295 246.876 294.175 246.876 294.031V288.784C246.876 288.628 246.927 288.499 247.029 288.397C247.137 288.289 247.269 288.235 247.425 288.235C247.509 288.235 247.596 288.253 247.686 288.289C247.776 288.319 247.842 288.367 247.884 288.433L251.313 292.807L251.16 292.915V288.739C251.16 288.595 251.205 288.475 251.295 288.379C251.385 288.283 251.505 288.235 251.655 288.235ZM256.465 294.625C256.009 294.625 255.583 294.541 255.187 294.373C254.791 294.205 254.443 293.974 254.143 293.68C253.843 293.38 253.606 293.035 253.432 292.645C253.264 292.255 253.18 291.835 253.18 291.385C253.18 290.935 253.264 290.515 253.432 290.125C253.606 289.735 253.843 289.393 254.143 289.099C254.443 288.799 254.791 288.565 255.187 288.397C255.583 288.229 256.009 288.145 256.465 288.145C256.747 288.145 257.02 288.175 257.284 288.235C257.548 288.295 257.791 288.385 258.013 288.505C258.103 288.553 258.169 288.619 258.211 288.703C258.259 288.781 258.283 288.862 258.283 288.946C258.283 289.09 258.235 289.219 258.139 289.333C258.043 289.447 257.92 289.504 257.77 289.504C257.722 289.504 257.671 289.498 257.617 289.486C257.569 289.474 257.521 289.456 257.473 289.432C257.323 289.366 257.164 289.315 256.996 289.279C256.828 289.243 256.651 289.225 256.465 289.225C256.075 289.225 255.718 289.324 255.394 289.522C255.076 289.714 254.821 289.975 254.629 290.305C254.443 290.629 254.35 290.989 254.35 291.385C254.35 291.775 254.443 292.135 254.629 292.465C254.821 292.795 255.076 293.059 255.394 293.257C255.718 293.449 256.075 293.545 256.465 293.545C256.645 293.545 256.843 293.527 257.059 293.491C257.275 293.455 257.452 293.407 257.59 293.347L257.509 293.617V292.078L257.662 292.213H256.663C256.507 292.213 256.375 292.162 256.267 292.06C256.165 291.958 256.114 291.829 256.114 291.673C256.114 291.517 256.165 291.388 256.267 291.286C256.375 291.184 256.507 291.133 256.663 291.133H258.139C258.295 291.133 258.424 291.187 258.526 291.295C258.628 291.397 258.679 291.526 258.679 291.682V293.59C258.679 293.71 258.649 293.809 258.589 293.887C258.535 293.965 258.472 294.028 258.4 294.076C258.124 294.244 257.821 294.379 257.491 294.481C257.167 294.577 256.825 294.625 256.465 294.625Z" fill="white"/>
<path d="M226.582 307.579C226.414 307.579 226.264 307.528 226.132 307.426C226 307.318 225.934 307.186 225.934 307.03V301.828C225.934 301.672 225.985 301.543 226.087 301.441C226.195 301.333 226.327 301.279 226.483 301.279H229.075C229.387 301.279 229.678 301.363 229.948 301.531C230.224 301.693 230.446 301.921 230.614 302.215C230.782 302.503 230.866 302.836 230.866 303.214C230.866 303.442 230.818 303.664 230.722 303.88C230.632 304.096 230.506 304.291 230.344 304.465C230.188 304.639 230.011 304.774 229.813 304.87L229.822 304.663C229.99 304.753 230.128 304.861 230.236 304.987C230.35 305.107 230.437 305.239 230.497 305.383C230.563 305.521 230.602 305.671 230.614 305.833C230.638 305.983 230.653 306.115 230.659 306.229C230.671 306.343 230.689 306.439 230.713 306.517C230.743 306.595 230.797 306.655 230.875 306.697C231.007 306.775 231.088 306.889 231.118 307.039C231.154 307.183 231.121 307.312 231.019 307.426C230.953 307.504 230.869 307.555 230.767 307.579C230.665 307.597 230.563 307.597 230.461 307.579C230.359 307.555 230.275 307.525 230.209 307.489C230.107 307.429 230.005 307.342 229.903 307.228C229.801 307.108 229.717 306.949 229.651 306.751C229.591 306.553 229.561 306.298 229.561 305.986C229.561 305.884 229.543 305.791 229.507 305.707C229.471 305.617 229.42 305.542 229.354 305.482C229.288 305.416 229.204 305.368 229.102 305.338C229 305.302 228.88 305.284 228.742 305.284H226.924L227.059 305.077V307.03C227.059 307.186 227.017 307.318 226.933 307.426C226.849 307.528 226.732 307.579 226.582 307.579ZM226.933 304.357H229.03C229.138 304.357 229.243 304.309 229.345 304.213C229.447 304.111 229.531 303.976 229.597 303.808C229.663 303.634 229.696 303.445 229.696 303.241C229.696 302.977 229.624 302.758 229.48 302.584C229.342 302.404 229.192 302.314 229.03 302.314H226.951L227.059 302.026V304.573L226.933 304.357ZM237.821 304.429C237.821 304.879 237.746 305.299 237.596 305.689C237.446 306.079 237.233 306.424 236.957 306.724C236.687 307.018 236.363 307.249 235.985 307.417C235.613 307.585 235.205 307.669 234.761 307.669C234.317 307.669 233.909 307.585 233.537 307.417C233.165 307.249 232.841 307.018 232.565 306.724C232.295 306.424 232.085 306.079 231.935 305.689C231.785 305.299 231.71 304.879 231.71 304.429C231.71 303.979 231.785 303.559 231.935 303.169C232.085 302.779 232.295 302.437 232.565 302.143C232.841 301.843 233.165 301.609 233.537 301.441C233.909 301.273 234.317 301.189 234.761 301.189C235.205 301.189 235.613 301.273 235.985 301.441C236.363 301.609 236.687 301.843 236.957 302.143C237.233 302.437 237.446 302.779 237.596 303.169C237.746 303.559 237.821 303.979 237.821 304.429ZM236.651 304.429C236.651 304.027 236.57 303.664 236.408 303.34C236.246 303.01 236.024 302.749 235.742 302.557C235.46 302.365 235.133 302.269 234.761 302.269C234.389 302.269 234.062 302.365 233.78 302.557C233.498 302.749 233.276 303.007 233.114 303.331C232.958 303.655 232.88 304.021 232.88 304.429C232.88 304.831 232.958 305.197 233.114 305.527C233.276 305.851 233.498 306.109 233.78 306.301C234.062 306.493 234.389 306.589 234.761 306.589C235.133 306.589 235.46 306.493 235.742 306.301C236.024 306.109 236.246 305.851 236.408 305.527C236.57 305.197 236.651 304.831 236.651 304.429ZM244.65 304.429C244.65 304.879 244.575 305.299 244.425 305.689C244.275 306.079 244.062 306.424 243.786 306.724C243.516 307.018 243.192 307.249 242.814 307.417C242.442 307.585 242.034 307.669 241.59 307.669C241.146 307.669 240.738 307.585 240.366 307.417C239.994 307.249 239.67 307.018 239.394 306.724C239.124 306.424 238.914 306.079 238.764 305.689C238.614 305.299 238.539 304.879 238.539 304.429C238.539 303.979 238.614 303.559 238.764 303.169C238.914 302.779 239.124 302.437 239.394 302.143C239.67 301.843 239.994 301.609 240.366 301.441C240.738 301.273 241.146 301.189 241.59 301.189C242.034 301.189 242.442 301.273 242.814 301.441C243.192 301.609 243.516 301.843 243.786 302.143C244.062 302.437 244.275 302.779 244.425 303.169C244.575 303.559 244.65 303.979 244.65 304.429ZM243.48 304.429C243.48 304.027 243.399 303.664 243.237 303.34C243.075 303.01 242.853 302.749 242.571 302.557C242.289 302.365 241.962 302.269 241.59 302.269C241.218 302.269 240.891 302.365 240.609 302.557C240.327 302.749 240.105 303.007 239.943 303.331C239.787 303.655 239.709 304.021 239.709 304.429C239.709 304.831 239.787 305.197 239.943 305.527C240.105 305.851 240.327 306.109 240.609 306.301C240.891 306.493 241.218 306.589 241.59 306.589C241.962 306.589 242.289 306.493 242.571 306.301C242.853 306.109 243.075 305.851 243.237 305.527C243.399 305.197 243.48 304.831 243.48 304.429ZM246.25 301.27C246.334 301.27 246.421 301.294 246.511 301.342C246.607 301.384 246.679 301.441 246.727 301.513L248.914 304.879L248.464 304.861L250.705 301.513C250.819 301.351 250.966 301.27 251.146 301.27C251.29 301.27 251.419 301.321 251.533 301.423C251.647 301.525 251.704 301.657 251.704 301.819V307.03C251.704 307.186 251.653 307.318 251.551 307.426C251.449 307.528 251.314 307.579 251.146 307.579C250.978 307.579 250.84 307.528 250.732 307.426C250.63 307.318 250.579 307.186 250.579 307.03V302.791L250.93 302.872L249.094 305.671C249.04 305.737 248.971 305.794 248.887 305.842C248.809 305.89 248.728 305.911 248.644 305.905C248.566 305.911 248.485 305.89 248.401 305.842C248.323 305.794 248.257 305.737 248.203 305.671L246.484 302.953L246.718 302.476V307.03C246.718 307.186 246.67 307.318 246.574 307.426C246.478 307.528 246.352 307.579 246.196 307.579C246.046 307.579 245.923 307.528 245.827 307.426C245.731 307.318 245.683 307.186 245.683 307.03V301.819C245.683 301.669 245.737 301.54 245.845 301.432C245.959 301.324 246.094 301.27 246.25 301.27Z" fill="white"/>
<path d="M47.8037 284.369C48.3797 284.369 48.8087 284.504 49.0907 284.774C49.3727 285.044 49.5137 285.443 49.5137 285.971C49.5137 286.253 49.4447 286.502 49.3067 286.718C49.1687 286.928 48.9647 287.093 48.6947 287.213C48.4247 287.327 48.0917 287.384 47.6957 287.384L47.7317 286.979C47.9177 286.979 48.1307 287.006 48.3707 287.06C48.6107 287.108 48.8417 287.198 49.0637 287.33C49.2917 287.456 49.4777 287.636 49.6217 287.87C49.7717 288.098 49.8467 288.392 49.8467 288.752C49.8467 289.148 49.7807 289.472 49.6487 289.724C49.5227 289.976 49.3547 290.171 49.1447 290.309C48.9347 290.447 48.7097 290.543 48.4697 290.597C48.2297 290.645 47.9987 290.669 47.7767 290.669H45.5357C45.3797 290.669 45.2477 290.618 45.1397 290.516C45.0377 290.408 44.9867 290.276 44.9867 290.12V284.918C44.9867 284.762 45.0377 284.633 45.1397 284.531C45.2477 284.423 45.3797 284.369 45.5357 284.369H47.8037ZM47.6417 285.431H46.0397L46.1567 285.287V286.916L46.0487 286.835H47.6687C47.8427 286.835 47.9987 286.778 48.1367 286.664C48.2747 286.55 48.3437 286.385 48.3437 286.169C48.3437 285.911 48.2777 285.725 48.1457 285.611C48.0197 285.491 47.8517 285.431 47.6417 285.431ZM47.7137 287.897H46.0757L46.1567 287.825V289.724L46.0667 289.634H47.7767C48.0527 289.634 48.2717 289.562 48.4337 289.418C48.5957 289.268 48.6767 289.046 48.6767 288.752C48.6767 288.482 48.6227 288.287 48.5147 288.167C48.4067 288.047 48.2777 287.972 48.1277 287.942C47.9777 287.912 47.8397 287.897 47.7137 287.897ZM53.1972 285.782L51.2532 290.354C51.2112 290.468 51.1452 290.558 51.0552 290.624C50.9712 290.684 50.8782 290.714 50.7762 290.714C50.6142 290.714 50.4942 290.669 50.4162 290.579C50.3382 290.489 50.2992 290.378 50.2992 290.246C50.2992 290.192 50.3082 290.135 50.3262 290.075L52.5672 284.693C52.6152 284.573 52.6872 284.48 52.7832 284.414C52.8852 284.348 52.9932 284.321 53.1072 284.333C53.2152 284.333 53.3142 284.366 53.4042 284.432C53.5002 284.492 53.5692 284.579 53.6112 284.693L55.8252 289.967C55.8552 290.045 55.8702 290.117 55.8702 290.183C55.8702 290.345 55.8162 290.474 55.7082 290.57C55.6062 290.666 55.4922 290.714 55.3662 290.714C55.2582 290.714 55.1592 290.681 55.0692 290.615C54.9852 290.549 54.9192 290.459 54.8712 290.345L52.9362 285.836L53.1972 285.782ZM51.5322 289.256L52.0272 288.221H54.4572L54.6282 289.256H51.5322ZM58.317 290.669C58.149 290.669 58.011 290.618 57.903 290.516C57.795 290.408 57.741 290.276 57.741 290.12V284.9H58.911V290.12C58.911 290.276 58.854 290.408 58.74 290.516C58.632 290.618 58.491 290.669 58.317 290.669ZM56.328 285.404C56.172 285.404 56.04 285.356 55.932 285.26C55.83 285.164 55.779 285.038 55.779 284.882C55.779 284.726 55.83 284.603 55.932 284.513C56.04 284.417 56.172 284.369 56.328 284.369H60.324C60.48 284.369 60.609 284.417 60.711 284.513C60.819 284.609 60.873 284.735 60.873 284.891C60.873 285.047 60.819 285.173 60.711 285.269C60.609 285.359 60.48 285.404 60.324 285.404H56.328ZM62.3938 284.369C62.5378 284.369 62.6638 284.423 62.7718 284.531C62.8858 284.633 62.9428 284.762 62.9428 284.918V290.12C62.9428 290.276 62.8858 290.408 62.7718 290.516C62.6578 290.618 62.5258 290.669 62.3758 290.669C62.2078 290.669 62.0728 290.618 61.9708 290.516C61.8688 290.408 61.8178 290.276 61.8178 290.12V284.918C61.8178 284.762 61.8718 284.633 61.9798 284.531C62.0878 284.423 62.2258 284.369 62.3938 284.369ZM66.3808 284.369C66.5488 284.369 66.6838 284.423 66.7858 284.531C66.8878 284.633 66.9388 284.762 66.9388 284.918V290.12C66.9388 290.276 66.8848 290.408 66.7768 290.516C66.6748 290.618 66.5368 290.669 66.3628 290.669C66.2188 290.669 66.0898 290.618 65.9758 290.516C65.8678 290.408 65.8138 290.276 65.8138 290.12V284.918C65.8138 284.762 65.8708 284.633 65.9848 284.531C66.0988 284.423 66.2308 284.369 66.3808 284.369ZM62.3668 286.988H66.3808V288.023H62.3668V286.988ZM68.9345 290.669C68.7665 290.669 68.6165 290.618 68.4845 290.516C68.3525 290.408 68.2865 290.276 68.2865 290.12V284.918C68.2865 284.762 68.3375 284.633 68.4395 284.531C68.5475 284.423 68.6795 284.369 68.8355 284.369H71.4275C71.7395 284.369 72.0305 284.453 72.3005 284.621C72.5765 284.783 72.7985 285.011 72.9665 285.305C73.1345 285.593 73.2185 285.926 73.2185 286.304C73.2185 286.532 73.1705 286.754 73.0745 286.97C72.9845 287.186 72.8585 287.381 72.6965 287.555C72.5405 287.729 72.3635 287.864 72.1655 287.96L72.1745 287.753C72.3425 287.843 72.4805 287.951 72.5885 288.077C72.7025 288.197 72.7895 288.329 72.8495 288.473C72.9155 288.611 72.9545 288.761 72.9665 288.923C72.9905 289.073 73.0055 289.205 73.0115 289.319C73.0235 289.433 73.0415 289.529 73.0655 289.607C73.0955 289.685 73.1495 289.745 73.2275 289.787C73.3595 289.865 73.4405 289.979 73.4705 290.129C73.5065 290.273 73.4735 290.402 73.3715 290.516C73.3055 290.594 73.2215 290.645 73.1195 290.669C73.0175 290.687 72.9155 290.687 72.8135 290.669C72.7115 290.645 72.6275 290.615 72.5615 290.579C72.4595 290.519 72.3575 290.432 72.2555 290.318C72.1535 290.198 72.0695 290.039 72.0035 289.841C71.9435 289.643 71.9135 289.388 71.9135 289.076C71.9135 288.974 71.8955 288.881 71.8595 288.797C71.8235 288.707 71.7725 288.632 71.7065 288.572C71.6405 288.506 71.5565 288.458 71.4545 288.428C71.3525 288.392 71.2325 288.374 71.0945 288.374H69.2765L69.4115 288.167V290.12C69.4115 290.276 69.3695 290.408 69.2855 290.516C69.2015 290.618 69.0845 290.669 68.9345 290.669ZM69.2855 287.447H71.3825C71.4905 287.447 71.5955 287.399 71.6975 287.303C71.7995 287.201 71.8835 287.066 71.9495 286.898C72.0155 286.724 72.0485 286.535 72.0485 286.331C72.0485 286.067 71.9765 285.848 71.8325 285.674C71.6945 285.494 71.5445 285.404 71.3825 285.404H69.3035L69.4115 285.116V287.663L69.2855 287.447ZM80.1733 287.519C80.1733 287.969 80.0983 288.389 79.9483 288.779C79.7983 289.169 79.5853 289.514 79.3093 289.814C79.0393 290.108 78.7153 290.339 78.3373 290.507C77.9653 290.675 77.5573 290.759 77.1133 290.759C76.6693 290.759 76.2613 290.675 75.8893 290.507C75.5173 290.339 75.1933 290.108 74.9173 289.814C74.6473 289.514 74.4373 289.169 74.2873 288.779C74.1373 288.389 74.0623 287.969 74.0623 287.519C74.0623 287.069 74.1373 286.649 74.2873 286.259C74.4373 285.869 74.6473 285.527 74.9173 285.233C75.1933 284.933 75.5173 284.699 75.8893 284.531C76.2613 284.363 76.6693 284.279 77.1133 284.279C77.5573 284.279 77.9653 284.363 78.3373 284.531C78.7153 284.699 79.0393 284.933 79.3093 285.233C79.5853 285.527 79.7983 285.869 79.9483 286.259C80.0983 286.649 80.1733 287.069 80.1733 287.519ZM79.0033 287.519C79.0033 287.117 78.9223 286.754 78.7603 286.43C78.5983 286.1 78.3763 285.839 78.0943 285.647C77.8123 285.455 77.4853 285.359 77.1133 285.359C76.7413 285.359 76.4143 285.455 76.1323 285.647C75.8503 285.839 75.6283 286.097 75.4663 286.421C75.3103 286.745 75.2323 287.111 75.2323 287.519C75.2323 287.921 75.3103 288.287 75.4663 288.617C75.6283 288.941 75.8503 289.199 76.1323 289.391C76.4143 289.583 76.7413 289.679 77.1133 289.679C77.4853 289.679 77.8123 289.583 78.0943 289.391C78.3763 289.199 78.5983 288.941 78.7603 288.617C78.9223 288.287 79.0033 287.921 79.0033 287.519ZM87.0024 287.519C87.0024 287.969 86.9274 288.389 86.7774 288.779C86.6274 289.169 86.4144 289.514 86.1384 289.814C85.8684 290.108 85.5444 290.339 85.1664 290.507C84.7944 290.675 84.3864 290.759 83.9424 290.759C83.4984 290.759 83.0904 290.675 82.7184 290.507C82.3464 290.339 82.0224 290.108 81.7464 289.814C81.4764 289.514 81.2664 289.169 81.1164 288.779C80.9664 288.389 80.8914 287.969 80.8914 287.519C80.8914 287.069 80.9664 286.649 81.1164 286.259C81.2664 285.869 81.4764 285.527 81.7464 285.233C82.0224 284.933 82.3464 284.699 82.7184 284.531C83.0904 284.363 83.4984 284.279 83.9424 284.279C84.3864 284.279 84.7944 284.363 85.1664 284.531C85.5444 284.699 85.8684 284.933 86.1384 285.233C86.4144 285.527 86.6274 285.869 86.7774 286.259C86.9274 286.649 87.0024 287.069 87.0024 287.519ZM85.8324 287.519C85.8324 287.117 85.7514 286.754 85.5894 286.43C85.4274 286.1 85.2054 285.839 84.9234 285.647C84.6414 285.455 84.3144 285.359 83.9424 285.359C83.5704 285.359 83.2434 285.455 82.9614 285.647C82.6794 285.839 82.4574 286.097 82.2954 286.421C82.1394 286.745 82.0614 287.111 82.0614 287.519C82.0614 287.921 82.1394 288.287 82.2954 288.617C82.4574 288.941 82.6794 289.199 82.9614 289.391C83.2434 289.583 83.5704 289.679 83.9424 289.679C84.3144 289.679 84.6414 289.583 84.9234 289.391C85.2054 289.199 85.4274 288.941 85.5894 288.617C85.7514 288.287 85.8324 287.921 85.8324 287.519ZM88.6025 284.36C88.6865 284.36 88.7735 284.384 88.8635 284.432C88.9595 284.474 89.0315 284.531 89.0795 284.603L91.2665 287.969L90.8165 287.951L93.0575 284.603C93.1715 284.441 93.3185 284.36 93.4985 284.36C93.6425 284.36 93.7715 284.411 93.8855 284.513C93.9995 284.615 94.0565 284.747 94.0565 284.909V290.12C94.0565 290.276 94.0055 290.408 93.9035 290.516C93.8015 290.618 93.6665 290.669 93.4985 290.669C93.3305 290.669 93.1925 290.618 93.0845 290.516C92.9825 290.408 92.9315 290.276 92.9315 290.12V285.881L93.2825 285.962L91.4465 288.761C91.3925 288.827 91.3235 288.884 91.2395 288.932C91.1615 288.98 91.0805 289.001 90.9965 288.995C90.9185 289.001 90.8375 288.98 90.7535 288.932C90.6755 288.884 90.6095 288.827 90.5555 288.761L88.8365 286.043L89.0705 285.566V290.12C89.0705 290.276 89.0225 290.408 88.9265 290.516C88.8305 290.618 88.7045 290.669 88.5485 290.669C88.3985 290.669 88.2755 290.618 88.1795 290.516C88.0835 290.408 88.0355 290.276 88.0355 290.12V284.909C88.0355 284.759 88.0895 284.63 88.1975 284.522C88.3115 284.414 88.4465 284.36 88.6025 284.36Z" fill="white"/>
<path d="M156.494 150.996C156.65 150.996 156.779 151.047 156.881 151.149C156.989 151.245 157.043 151.371 157.043 151.527C157.043 151.677 156.989 151.803 156.881 151.905C156.779 152.001 156.65 152.049 156.494 152.049H153.569C153.413 152.049 153.281 151.998 153.173 151.896C153.071 151.788 153.02 151.656 153.02 151.5V146.298C153.02 146.142 153.074 146.013 153.182 145.911C153.29 145.803 153.428 145.749 153.596 145.749C153.74 145.749 153.866 145.803 153.974 145.911C154.088 146.013 154.145 146.142 154.145 146.298V151.149L153.947 150.996H156.494ZM159.199 151.5C159.199 151.656 159.142 151.788 159.028 151.896C158.914 151.998 158.782 152.049 158.632 152.049C158.464 152.049 158.329 151.998 158.227 151.896C158.125 151.788 158.074 151.656 158.074 151.5V146.298C158.074 146.142 158.128 146.013 158.236 145.911C158.344 145.803 158.482 145.749 158.65 145.749C158.794 145.749 158.92 145.803 159.028 145.911C159.142 146.013 159.199 146.142 159.199 146.298V151.5ZM165.151 145.731C165.301 145.731 165.43 145.782 165.538 145.884C165.652 145.98 165.709 146.103 165.709 146.253C165.709 146.331 165.691 146.412 165.655 146.496L163.432 151.698C163.378 151.818 163.3 151.908 163.198 151.968C163.102 152.022 163.003 152.049 162.901 152.049C162.805 152.043 162.712 152.013 162.622 151.959C162.532 151.899 162.463 151.815 162.415 151.707L160.192 146.487C160.174 146.451 160.162 146.415 160.156 146.379C160.15 146.337 160.147 146.298 160.147 146.262C160.147 146.088 160.21 145.956 160.336 145.866C160.462 145.77 160.582 145.722 160.696 145.722C160.924 145.722 161.089 145.839 161.191 146.073L163.162 150.708L162.847 150.717L164.656 146.073C164.758 145.845 164.923 145.731 165.151 145.731ZM167.777 151.5C167.777 151.656 167.72 151.788 167.606 151.896C167.492 151.998 167.36 152.049 167.21 152.049C167.042 152.049 166.907 151.998 166.805 151.896C166.703 151.788 166.652 151.656 166.652 151.5V146.298C166.652 146.142 166.706 146.013 166.814 145.911C166.922 145.803 167.06 145.749 167.228 145.749C167.372 145.749 167.498 145.803 167.606 145.911C167.72 146.013 167.777 146.142 167.777 146.298V151.5ZM173.909 145.749C174.053 145.749 174.17 145.797 174.26 145.893C174.35 145.989 174.395 146.109 174.395 146.253V151.5C174.395 151.656 174.341 151.788 174.233 151.896C174.131 151.998 174.002 152.049 173.846 152.049C173.768 152.049 173.687 152.037 173.603 152.013C173.525 151.983 173.465 151.944 173.423 151.896L169.886 147.405L170.12 147.261V151.545C170.12 151.689 170.072 151.809 169.976 151.905C169.886 152.001 169.766 152.049 169.616 152.049C169.472 152.049 169.355 152.001 169.265 151.905C169.175 151.809 169.13 151.689 169.13 151.545V146.298C169.13 146.142 169.181 146.013 169.283 145.911C169.391 145.803 169.523 145.749 169.679 145.749C169.763 145.749 169.85 145.767 169.94 145.803C170.03 145.833 170.096 145.881 170.138 145.947L173.567 150.321L173.414 150.429V146.253C173.414 146.109 173.459 145.989 173.549 145.893C173.639 145.797 173.759 145.749 173.909 145.749ZM178.718 152.139C178.262 152.139 177.836 152.055 177.44 151.887C177.044 151.719 176.696 151.488 176.396 151.194C176.096 150.894 175.859 150.549 175.685 150.159C175.517 149.769 175.433 149.349 175.433 148.899C175.433 148.449 175.517 148.029 175.685 147.639C175.859 147.249 176.096 146.907 176.396 146.613C176.696 146.313 177.044 146.079 177.44 145.911C177.836 145.743 178.262 145.659 178.718 145.659C179 145.659 179.273 145.689 179.537 145.749C179.801 145.809 180.044 145.899 180.266 146.019C180.356 146.067 180.422 146.133 180.464 146.217C180.512 146.295 180.536 146.376 180.536 146.46C180.536 146.604 180.488 146.733 180.392 146.847C180.296 146.961 180.173 147.018 180.023 147.018C179.975 147.018 179.924 147.012 179.87 147C179.822 146.988 179.774 146.97 179.726 146.946C179.576 146.88 179.417 146.829 179.249 146.793C179.081 146.757 178.904 146.739 178.718 146.739C178.328 146.739 177.971 146.838 177.647 147.036C177.329 147.228 177.074 147.489 176.882 147.819C176.696 148.143 176.603 148.503 176.603 148.899C176.603 149.289 176.696 149.649 176.882 149.979C177.074 150.309 177.329 150.573 177.647 150.771C177.971 150.963 178.328 151.059 178.718 151.059C178.898 151.059 179.096 151.041 179.312 151.005C179.528 150.969 179.705 150.921 179.843 150.861L179.762 151.131V149.592L179.915 149.727H178.916C178.76 149.727 178.628 149.676 178.52 149.574C178.418 149.472 178.367 149.343 178.367 149.187C178.367 149.031 178.418 148.902 178.52 148.8C178.628 148.698 178.76 148.647 178.916 148.647H180.392C180.548 148.647 180.677 148.701 180.779 148.809C180.881 148.911 180.932 149.04 180.932 149.196V151.104C180.932 151.224 180.902 151.323 180.842 151.401C180.788 151.479 180.725 151.542 180.653 151.59C180.377 151.758 180.074 151.893 179.744 151.995C179.42 152.091 179.078 152.139 178.718 152.139Z" fill="white"/>
<path d="M154.738 165.093C154.57 165.093 154.42 165.042 154.288 164.94C154.156 164.832 154.09 164.7 154.09 164.544V159.342C154.09 159.186 154.141 159.057 154.243 158.955C154.351 158.847 154.483 158.793 154.639 158.793H157.231C157.543 158.793 157.834 158.877 158.104 159.045C158.38 159.207 158.602 159.435 158.77 159.729C158.938 160.017 159.022 160.35 159.022 160.728C159.022 160.956 158.974 161.178 158.878 161.394C158.788 161.61 158.662 161.805 158.5 161.979C158.344 162.153 158.167 162.288 157.969 162.384L157.978 162.177C158.146 162.267 158.284 162.375 158.392 162.501C158.506 162.621 158.593 162.753 158.653 162.897C158.719 163.035 158.758 163.185 158.77 163.347C158.794 163.497 158.809 163.629 158.815 163.743C158.827 163.857 158.845 163.953 158.869 164.031C158.899 164.109 158.953 164.169 159.031 164.211C159.163 164.289 159.244 164.403 159.274 164.553C159.31 164.697 159.277 164.826 159.175 164.94C159.109 165.018 159.025 165.069 158.923 165.093C158.821 165.111 158.719 165.111 158.617 165.093C158.515 165.069 158.431 165.039 158.365 165.003C158.263 164.943 158.161 164.856 158.059 164.742C157.957 164.622 157.873 164.463 157.807 164.265C157.747 164.067 157.717 163.812 157.717 163.5C157.717 163.398 157.699 163.305 157.663 163.221C157.627 163.131 157.576 163.056 157.51 162.996C157.444 162.93 157.36 162.882 157.258 162.852C157.156 162.816 157.036 162.798 156.898 162.798H155.08L155.215 162.591V164.544C155.215 164.7 155.173 164.832 155.089 164.94C155.005 165.042 154.888 165.093 154.738 165.093ZM155.089 161.871H157.186C157.294 161.871 157.399 161.823 157.501 161.727C157.603 161.625 157.687 161.49 157.753 161.322C157.819 161.148 157.852 160.959 157.852 160.755C157.852 160.491 157.78 160.272 157.636 160.098C157.498 159.918 157.348 159.828 157.186 159.828H155.107L155.215 159.54V162.087L155.089 161.871ZM165.977 161.943C165.977 162.393 165.902 162.813 165.752 163.203C165.602 163.593 165.389 163.938 165.113 164.238C164.843 164.532 164.519 164.763 164.141 164.931C163.769 165.099 163.361 165.183 162.917 165.183C162.473 165.183 162.065 165.099 161.693 164.931C161.321 164.763 160.997 164.532 160.721 164.238C160.451 163.938 160.241 163.593 160.091 163.203C159.941 162.813 159.866 162.393 159.866 161.943C159.866 161.493 159.941 161.073 160.091 160.683C160.241 160.293 160.451 159.951 160.721 159.657C160.997 159.357 161.321 159.123 161.693 158.955C162.065 158.787 162.473 158.703 162.917 158.703C163.361 158.703 163.769 158.787 164.141 158.955C164.519 159.123 164.843 159.357 165.113 159.657C165.389 159.951 165.602 160.293 165.752 160.683C165.902 161.073 165.977 161.493 165.977 161.943ZM164.807 161.943C164.807 161.541 164.726 161.178 164.564 160.854C164.402 160.524 164.18 160.263 163.898 160.071C163.616 159.879 163.289 159.783 162.917 159.783C162.545 159.783 162.218 159.879 161.936 160.071C161.654 160.263 161.432 160.521 161.27 160.845C161.114 161.169 161.036 161.535 161.036 161.943C161.036 162.345 161.114 162.711 161.27 163.041C161.432 163.365 161.654 163.623 161.936 163.815C162.218 164.007 162.545 164.103 162.917 164.103C163.289 164.103 163.616 164.007 163.898 163.815C164.18 163.623 164.402 163.365 164.564 163.041C164.726 162.711 164.807 162.345 164.807 161.943ZM172.806 161.943C172.806 162.393 172.731 162.813 172.581 163.203C172.431 163.593 172.218 163.938 171.942 164.238C171.672 164.532 171.348 164.763 170.97 164.931C170.598 165.099 170.19 165.183 169.746 165.183C169.302 165.183 168.894 165.099 168.522 164.931C168.15 164.763 167.826 164.532 167.55 164.238C167.28 163.938 167.07 163.593 166.92 163.203C166.77 162.813 166.695 162.393 166.695 161.943C166.695 161.493 166.77 161.073 166.92 160.683C167.07 160.293 167.28 159.951 167.55 159.657C167.826 159.357 168.15 159.123 168.522 158.955C168.894 158.787 169.302 158.703 169.746 158.703C170.19 158.703 170.598 158.787 170.97 158.955C171.348 159.123 171.672 159.357 171.942 159.657C172.218 159.951 172.431 160.293 172.581 160.683C172.731 161.073 172.806 161.493 172.806 161.943ZM171.636 161.943C171.636 161.541 171.555 161.178 171.393 160.854C171.231 160.524 171.009 160.263 170.727 160.071C170.445 159.879 170.118 159.783 169.746 159.783C169.374 159.783 169.047 159.879 168.765 160.071C168.483 160.263 168.261 160.521 168.099 160.845C167.943 161.169 167.865 161.535 167.865 161.943C167.865 162.345 167.943 162.711 168.099 163.041C168.261 163.365 168.483 163.623 168.765 163.815C169.047 164.007 169.374 164.103 169.746 164.103C170.118 164.103 170.445 164.007 170.727 163.815C171.009 163.623 171.231 163.365 171.393 163.041C171.555 162.711 171.636 162.345 171.636 161.943ZM174.406 158.784C174.49 158.784 174.577 158.808 174.667 158.856C174.763 158.898 174.835 158.955 174.883 159.027L177.07 162.393L176.62 162.375L178.861 159.027C178.975 158.865 179.122 158.784 179.302 158.784C179.446 158.784 179.575 158.835 179.689 158.937C179.803 159.039 179.86 159.171 179.86 159.333V164.544C179.86 164.7 179.809 164.832 179.707 164.94C179.605 165.042 179.47 165.093 179.302 165.093C179.134 165.093 178.996 165.042 178.888 164.94C178.786 164.832 178.735 164.7 178.735 164.544V160.305L179.086 160.386L177.25 163.185C177.196 163.251 177.127 163.308 177.043 163.356C176.965 163.404 176.884 163.425 176.8 163.419C176.722 163.425 176.641 163.404 176.557 163.356C176.479 163.308 176.413 163.251 176.359 163.185L174.64 160.467L174.874 159.99V164.544C174.874 164.7 174.826 164.832 174.73 164.94C174.634 165.042 174.508 165.093 174.352 165.093C174.202 165.093 174.079 165.042 173.983 164.94C173.887 164.832 173.839 164.7 173.839 164.544V159.333C173.839 159.183 173.893 159.054 174.001 158.946C174.115 158.838 174.25 158.784 174.406 158.784Z" fill="white"/>
<path d="M106.284 101.463H138.066C138.066 101.463 140.133 72.7916 106.284 73.1684" stroke="white" stroke-width="1.0984" stroke-miterlimit="10" stroke-linejoin="round"/>
<path d="M105.761 153.92H73.9788C73.9788 153.92 71.9118 125.248 105.761 125.625" stroke="white" stroke-width="1.0984" stroke-miterlimit="10" stroke-linejoin="round"/>
<path d="M148.847 302.625H117.065C117.065 302.625 114.998 273.953 148.847 274.33" stroke="white" stroke-width="1.0984" stroke-miterlimit="10" stroke-linejoin="round"/>
<path d="M165.644 379V347.167C165.644 347.167 194.27 345.097 193.894 379" stroke="white" stroke-width="1.0984" stroke-miterlimit="10" stroke-linejoin="round"/>
<path d="M210.474 205.759H242.256C242.256 205.759 244.323 234.43 210.474 234.054" stroke="white" stroke-width="1.0984" stroke-miterlimit="10" stroke-linejoin="round"/>
<path d="M169.218 105.324V73.491C169.218 73.491 197.844 71.4208 197.468 105.324" stroke="white" stroke-width="1.0984" stroke-miterlimit="10" stroke-linejoin="round"/>
<path d="M319.427 282.952V296.036H342.942V282.952H319.427Z" stroke="white" stroke-width="1.1396" stroke-miterlimit="10"/>
<path d="M273.732 335.974H210.743V358.561H273.732V335.974Z" stroke="white" stroke-width="1.0984" stroke-miterlimit="10"/>
<path d="M210.743 358.563L273.732 335.974" stroke="white" stroke-width="1.0984" stroke-miterlimit="10"/>
<path d="M210.743 335.974L273.732 358.563" stroke="white" stroke-width="1.0984" stroke-miterlimit="10"/>
<path d="M328.431 17.3273L397.788 17.3273V1.00088L328.431 1.00088V17.3273Z" stroke="white" stroke-width="1.193" stroke-miterlimit="10"/>
<path d="M397.786 1L328.429 17.3276" stroke="white" stroke-width="1.193" stroke-miterlimit="10"/>
<path d="M397.786 17.3276L328.429 1" stroke="white" stroke-width="1.193" stroke-miterlimit="10"/>
<path d="M259.072 17.3273L328.429 17.3273V1.00088L259.072 1.00088V17.3273Z" stroke="white" stroke-width="1.193" stroke-miterlimit="10"/>
<path d="M328.427 1L259.07 17.3276" stroke="white" stroke-width="1.193" stroke-miterlimit="10"/>
<path d="M328.427 17.3276L259.07 1" stroke="white" stroke-width="1.193" stroke-miterlimit="10"/>
<path d="M296.851 190.988V274.731H365.516V190.988H296.851Z" stroke="white" stroke-width="1.1396" stroke-miterlimit="10"/>
<path d="M296.852 206.839H365.517V190.986H296.852V206.839Z" stroke="white" stroke-width="1.1396" stroke-miterlimit="10"/>
<path d="M372.206 209.684H390.872V190.987H372.206V209.684Z" stroke="white" stroke-width="1.1396" stroke-miterlimit="10"/>
<path d="M271.559 209.684H290.226V190.987H271.559V209.684Z" stroke="white" stroke-width="1.1396" stroke-miterlimit="10"/>
<path d="M269.909 262.356H273.735V335.193H211.056V262.356H242.984" stroke="white" stroke-width="1.4833" stroke-miterlimit="10"/>
<path d="M399.147 315.839V336.825L273.732 336.776V378.697L193.894 378.665" stroke="white" stroke-width="3" stroke-miterlimit="10"/>
<path d="M399.146 81.0332V236.928" stroke="white" stroke-width="3" stroke-miterlimit="10"/>
<path d="M95.4836 43.6733H105.762V1.80109H399.148V31.4439" stroke="white" stroke-width="3" stroke-miterlimit="10"/>
<path d="M165.645 378.654L147.98 378.647V336.776H1.99921V43.6729H15.4404" stroke="white" stroke-width="3" stroke-miterlimit="10"/>
<path d="M196.81 106.009H258.357V1.85635" stroke="white" stroke-width="3" stroke-miterlimit="10"/>
<path d="M105.763 101.463V106.008H169.824" stroke="white" stroke-width="3" stroke-miterlimit="10"/>
<path d="M105.763 43.6729V73.1684" stroke="white" stroke-width="3" stroke-miterlimit="10"/>
<path d="M105.763 125.624V106.009" stroke="white" stroke-width="3" stroke-miterlimit="10"/>
<path d="M1.99921 232.097H105.761V153.92" stroke="white" stroke-width="3" stroke-miterlimit="10"/>
<path d="M147.929 302V336.776" stroke="white" stroke-width="3" stroke-miterlimit="10"/>
<path d="M105.763 232.096H147.931V274.328" stroke="white" stroke-width="3" stroke-miterlimit="10"/>
<path d="M209.603 205.759V190.225H398.691" stroke="white" stroke-width="3" stroke-miterlimit="10"/>
<path d="M273.732 336.777L209.603 336.827V234.054" stroke="white" stroke-width="3" stroke-miterlimit="10"/>
<path d="M193.898 378.663L189.677 378.662" stroke="white" stroke-linecap="round" stroke-linejoin="round"/>
<path d="M182.163 378.66L173.624 378.656" stroke="white" stroke-linecap="round" stroke-linejoin="round" stroke-dasharray="3.96 6.23"/>
<path d="M169.868 378.654L165.648 378.653" stroke="white" stroke-linecap="round" stroke-linejoin="round"/>
<path d="M148.608 272.949L148.607 277.177" stroke="white" stroke-linecap="round" stroke-linejoin="round"/>
<path d="M148.606 284.702L148.603 293.254" stroke="white" stroke-linecap="round" stroke-linejoin="round" stroke-dasharray="3.96 6.23"/>
<path d="M148.598 297.017L148.597 301.244" stroke="white" stroke-linecap="round" stroke-linejoin="round"/>
<path d="M209.614 205.183L209.613 209.41" stroke="white" stroke-linecap="round" stroke-linejoin="round"/>
<path d="M209.608 216.936L209.605 225.487" stroke="white" stroke-linecap="round" stroke-linejoin="round" stroke-dasharray="3.96 6.23"/>
<path d="M209.604 229.25L209.603 233.478" stroke="white" stroke-linecap="round" stroke-linejoin="round"/>
<path d="M270.495 262.374L266.274 262.371" stroke="white" stroke-linecap="round" stroke-linejoin="round"/>
<path d="M258.759 262.369L250.22 262.366" stroke="white" stroke-linecap="round" stroke-linejoin="round" stroke-dasharray="3.96 6.23"/>
<path d="M246.464 262.364L242.243 262.363" stroke="white" stroke-linecap="round" stroke-linejoin="round"/>
<path d="M242.241 262.357V230.525C242.241 230.525 270.867 228.454 270.491 262.357" stroke="white" stroke-width="1.0984" stroke-miterlimit="10" stroke-linejoin="round"/>
<path d="M105.76 125.623L105.759 129.851" stroke="white" stroke-linecap="round" stroke-linejoin="round"/>
<path d="M105.755 137.377L105.751 145.928" stroke="white" stroke-linecap="round" stroke-linejoin="round" stroke-dasharray="3.96 6.23"/>
<path d="M105.75 149.691L105.749 153.919" stroke="white" stroke-linecap="round" stroke-linejoin="round"/>
<path d="M197.261 106.487L193.04 106.486" stroke="white" stroke-linecap="round" stroke-linejoin="round"/>
<path d="M185.527 106.482L176.987 106.479" stroke="white" stroke-linecap="round" stroke-linejoin="round" stroke-dasharray="3.96 6.23"/>
<path d="M173.232 106.478L169.011 106.477" stroke="white" stroke-linecap="round" stroke-linejoin="round"/>
<path d="M105.754 72.7745L105.753 77.0019" stroke="white" stroke-linecap="round" stroke-linejoin="round"/>
<path d="M105.753 84.5276L105.749 93.0791" stroke="white" stroke-linecap="round" stroke-linejoin="round" stroke-dasharray="3.96 6.23"/>
<path d="M105.745 96.8426L105.743 101.07" stroke="white" stroke-linecap="round" stroke-linejoin="round"/>
<path d="M73.5864 335.429H147.308V312.842H73.5864V335.429Z" stroke="white" stroke-width="1.0984" stroke-miterlimit="10"/>
<path d="M147.305 312.842L73.5832 335.43" stroke="white" stroke-width="1.0984" stroke-miterlimit="10"/>
<path d="M147.305 335.43L73.5832 312.842" stroke="white" stroke-width="1.0984" stroke-miterlimit="10"/>
<path d="M45.9712 326.494H22.8996V336.186H45.9712V326.494Z" stroke="white" stroke-width="1.0208" stroke-miterlimit="10"/>
<path d="M25.9816 326.309C24.5092 324.193 23.6301 321.513 23.6301 318.597C23.6301 311.76 28.4682 306.216 34.4363 306.216C40.4044 306.216 45.2425 311.758 45.2425 318.597C45.2425 321.591 44.3152 324.337 42.7716 326.477" stroke="white" stroke-width="1.0208" stroke-miterlimit="10"/>
<path d="M25.9629 265.99C18.8166 265.99 13.0246 260.187 13.0246 253.031C13.0246 245.873 18.8178 240.072 25.9629 240.072H61.6448C68.7911 240.072 74.5831 245.874 74.5831 253.031C74.5831 260.189 68.7899 265.99 61.6448 265.99H25.9629Z" stroke="white" stroke-width="1.0984" stroke-miterlimit="10"/>
<path d="M85.6091 232.096H1.99921V273.968H85.6091V232.096Z" stroke="white" stroke-width="1.0932" stroke-miterlimit="10"/>
<path d="M125.305 250.993C132.631 250.993 138.57 246.763 138.57 241.544C138.57 236.326 132.631 232.095 125.305 232.095C117.979 232.095 112.04 236.326 112.04 241.544C112.04 246.763 117.979 250.993 125.305 250.993Z" stroke="white" stroke-width="1.0208" stroke-miterlimit="10"/>
<path d="M126.427 234.359H124.183V242.435H126.427V234.359Z" stroke="white" stroke-width="1.0208" stroke-miterlimit="10"/>
<path d="M123.313 233.416H121.068V237.056H123.313V233.416Z" stroke="white" stroke-width="0.6854" stroke-miterlimit="10"/>
<path d="M128.897 233.416H126.652V237.056H128.897V233.416Z" stroke="white" stroke-width="0.6854" stroke-miterlimit="10"/>
<path d="M284.146 179.58H321.07V106.304H284.146V179.58Z" stroke="white" stroke-width="1.0984" stroke-miterlimit="10"/>
<path d="M294.595 106.303V179.579H284.144V106.303" stroke="white" stroke-width="1.0984" stroke-miterlimit="10"/>
<path d="M321.068 142.942H284.589" stroke="white" stroke-width="1.0984" stroke-miterlimit="10"/>
<path d="M335.583 164.082H361.712V116.976H335.583V164.082Z" stroke="white" stroke-width="1.0984" stroke-miterlimit="10"/>
<path d="M383.912 171.757H393.786V111.577H383.912V171.757Z" stroke="white" stroke-width="1.0984" stroke-miterlimit="10"/>
<path d="M378.245 182.261H399.448V101.07H378.245V182.261Z" stroke="white" stroke-width="0.9033" stroke-miterlimit="10"/>
<path d="M210.322 189.393H274.527V166.805H210.322V189.393Z" stroke="white" stroke-width="1.0984" stroke-miterlimit="10"/>
<path d="M274.528 166.805L210.323 189.394" stroke="white" stroke-width="1.0984" stroke-miterlimit="10"/>
<path d="M274.528 189.394L210.323 166.805" stroke="white" stroke-width="1.0984" stroke-miterlimit="10"/>
<path d="M106.514 125.84H164.009V105.612H106.514V125.84Z" stroke="white" stroke-width="1.0984" stroke-miterlimit="10"/>
<path d="M164.009 105.611L106.513 125.838" stroke="white" stroke-width="1.0984" stroke-miterlimit="10"/>
<path d="M164.009 125.838L106.513 105.611" stroke="white" stroke-width="1.0984" stroke-miterlimit="10"/>
<path d="M299.439 70.5514C295.314 70.5514 291.97 67.1671 291.97 62.9904C291.97 58.8148 295.314 55.4293 299.439 55.4293" stroke="white" stroke-width="1.193" stroke-miterlimit="10" stroke-linecap="round" stroke-linejoin="round"/>
<path d="M315.511 45.0661C315.511 40.9341 318.89 37.5848 323.06 37.5848C327.23 37.5848 330.609 40.9341 330.609 45.0661" stroke="white" stroke-width="1.193" stroke-miterlimit="10" stroke-linecap="round" stroke-linejoin="round"/>
<path d="M339.163 45.0663C339.163 40.9343 342.543 37.5849 346.712 37.5849C350.881 37.5849 354.26 40.9343 354.26 45.0663" stroke="white" stroke-width="1.193" stroke-miterlimit="10" stroke-linecap="round" stroke-linejoin="round"/>
<path d="M354.257 81.034C354.257 85.166 350.878 88.5154 346.708 88.5154C342.54 88.5154 339.159 85.166 339.159 81.034" stroke="white" stroke-width="1.193" stroke-miterlimit="10" stroke-linecap="round" stroke-linejoin="round"/>
<path d="M330.609 81.034C330.609 85.166 327.229 88.5154 323.06 88.5154C318.891 88.5154 315.511 85.166 315.511 81.034" stroke="white" stroke-width="1.193" stroke-miterlimit="10" stroke-linecap="round" stroke-linejoin="round"/>
<path d="M369.97 55.4307C374.095 55.4307 377.439 58.8163 377.439 62.9918C377.439 67.1673 374.095 70.5529 369.97 70.5529" stroke="white" stroke-width="1.193" stroke-miterlimit="10" stroke-linecap="round" stroke-linejoin="round"/>
<path d="M316.208 80.9158C306.324 80.9158 298.312 72.8909 298.312 62.9914C298.312 53.092 306.324 45.0671 316.208 45.0671H353.567C363.451 45.0671 371.463 53.092 371.463 62.9914C371.463 72.8909 363.451 80.9158 353.567 80.9158H316.208Z" stroke="white" stroke-width="1.193" stroke-miterlimit="10"/>
<path d="M46.106 117.201C45.938 117.201 45.803 117.132 45.701 116.994L43.622 114.258L44.441 113.421L46.592 116.265C46.676 116.379 46.718 116.502 46.718 116.634C46.718 116.802 46.655 116.94 46.529 117.048C46.403 117.15 46.262 117.201 46.106 117.201ZM46.214 110.856C46.358 110.856 46.475 110.916 46.565 111.036C46.661 111.15 46.709 111.267 46.709 111.387C46.709 111.513 46.655 111.63 46.547 111.738L42.776 115.347L42.731 114.06L45.773 111.063C45.911 110.925 46.058 110.856 46.214 110.856ZM42.326 117.201C42.158 117.201 42.023 117.15 41.921 117.048C41.819 116.94 41.768 116.808 41.768 116.652V111.45C41.768 111.294 41.822 111.165 41.93 111.063C42.038 110.955 42.176 110.901 42.344 110.901C42.512 110.901 42.644 110.955 42.74 111.063C42.842 111.165 42.893 111.294 42.893 111.45V116.652C42.893 116.808 42.842 116.94 42.74 117.048C42.638 117.15 42.5 117.201 42.326 117.201ZM48.7904 116.652C48.7904 116.808 48.7334 116.94 48.6194 117.048C48.5054 117.15 48.3734 117.201 48.2234 117.201C48.0554 117.201 47.9204 117.15 47.8184 117.048C47.7164 116.94 47.6654 116.808 47.6654 116.652V111.45C47.6654 111.294 47.7194 111.165 47.8274 111.063C47.9354 110.955 48.0734 110.901 48.2414 110.901C48.3854 110.901 48.5114 110.955 48.6194 111.063C48.7334 111.165 48.7904 111.294 48.7904 111.45V116.652ZM52.2769 117.201C52.1089 117.201 51.9709 117.15 51.8629 117.048C51.7549 116.94 51.7009 116.808 51.7009 116.652V111.432H52.8709V116.652C52.8709 116.808 52.8139 116.94 52.6999 117.048C52.5919 117.15 52.4509 117.201 52.2769 117.201ZM50.2879 111.936C50.1319 111.936 49.9999 111.888 49.8919 111.792C49.7899 111.696 49.7389 111.57 49.7389 111.414C49.7389 111.258 49.7899 111.135 49.8919 111.045C49.9999 110.949 50.1319 110.901 50.2879 110.901H54.2839C54.4399 110.901 54.5689 110.949 54.6709 111.045C54.7789 111.141 54.8329 111.267 54.8329 111.423C54.8329 111.579 54.7789 111.705 54.6709 111.801C54.5689 111.891 54.4399 111.936 54.2839 111.936H50.2879ZM60.0119 111.207C60.1679 111.285 60.2579 111.408 60.2819 111.576C60.3119 111.744 60.2699 111.897 60.1559 112.035C60.0779 112.143 59.9759 112.203 59.8499 112.215C59.7299 112.227 59.6069 112.203 59.4809 112.143C59.3369 112.077 59.1839 112.026 59.0219 111.99C58.8659 111.954 58.7009 111.936 58.5269 111.936C58.2029 111.936 57.9119 111.987 57.6539 112.089C57.4019 112.191 57.1859 112.338 57.0059 112.53C56.8259 112.716 56.6879 112.938 56.5919 113.196C56.5019 113.454 56.4569 113.739 56.4569 114.051C56.4569 114.417 56.5079 114.735 56.6099 115.005C56.7179 115.275 56.8649 115.5 57.0509 115.68C57.2369 115.86 57.4559 115.995 57.7079 116.085C57.9599 116.169 58.2329 116.211 58.5269 116.211C58.6889 116.211 58.8509 116.196 59.0129 116.166C59.1749 116.136 59.3309 116.082 59.4809 116.004C59.6069 115.944 59.7299 115.923 59.8499 115.941C59.9759 115.959 60.0809 116.022 60.1649 116.13C60.2849 116.28 60.3269 116.436 60.2909 116.598C60.2609 116.754 60.1709 116.868 60.0209 116.94C59.8649 117.018 59.7029 117.084 59.5349 117.138C59.3729 117.186 59.2079 117.222 59.0399 117.246C58.8719 117.276 58.7009 117.291 58.5269 117.291C58.0949 117.291 57.6839 117.222 57.2939 117.084C56.9099 116.946 56.5649 116.742 56.2589 116.472C55.9589 116.202 55.7219 115.866 55.5479 115.464C55.3739 115.056 55.2869 114.585 55.2869 114.051C55.2869 113.589 55.3649 113.163 55.5209 112.773C55.6829 112.383 55.9079 112.047 56.1959 111.765C56.4899 111.477 56.8349 111.255 57.2309 111.099C57.6269 110.937 58.0589 110.856 58.5269 110.856C58.7909 110.856 59.0489 110.886 59.3009 110.946C59.5529 111.006 59.7899 111.093 60.0119 111.207ZM61.8205 110.901C61.9645 110.901 62.0905 110.955 62.1985 111.063C62.3125 111.165 62.3695 111.294 62.3695 111.45V116.652C62.3695 116.808 62.3125 116.94 62.1985 117.048C62.0845 117.15 61.9525 117.201 61.8025 117.201C61.6345 117.201 61.4995 117.15 61.3975 117.048C61.2955 116.94 61.2445 116.808 61.2445 116.652V111.45C61.2445 111.294 61.2985 111.165 61.4065 111.063C61.5145 110.955 61.6525 110.901 61.8205 110.901ZM65.8075 110.901C65.9755 110.901 66.1105 110.955 66.2125 111.063C66.3145 111.165 66.3655 111.294 66.3655 111.45V116.652C66.3655 116.808 66.3115 116.94 66.2035 117.048C66.1015 117.15 65.9635 117.201 65.7895 117.201C65.6455 117.201 65.5165 117.15 65.4025 117.048C65.2945 116.94 65.2405 116.808 65.2405 116.652V111.45C65.2405 111.294 65.2975 111.165 65.4115 111.063C65.5255 110.955 65.6575 110.901 65.8075 110.901ZM61.7935 113.52H65.8075V114.555H61.7935V113.52ZM68.2623 110.901H71.2773C71.4333 110.901 71.5623 110.952 71.6643 111.054C71.7723 111.15 71.8263 111.276 71.8263 111.432C71.8263 111.582 71.7723 111.705 71.6643 111.801C71.5623 111.891 71.4333 111.936 71.2773 111.936H68.7573L68.8383 111.783V113.538L68.7663 113.466H70.8723C71.0283 113.466 71.1573 113.517 71.2593 113.619C71.3673 113.715 71.4213 113.841 71.4213 113.997C71.4213 114.147 71.3673 114.27 71.2593 114.366C71.1573 114.456 71.0283 114.501 70.8723 114.501H68.7933L68.8383 114.429V116.247L68.7663 116.166H71.2773C71.4333 116.166 71.5623 116.22 71.6643 116.328C71.7723 116.43 71.8263 116.55 71.8263 116.688C71.8263 116.838 71.7723 116.961 71.6643 117.057C71.5623 117.153 71.4333 117.201 71.2773 117.201H68.2623C68.1063 117.201 67.9743 117.15 67.8663 117.048C67.7643 116.94 67.7133 116.808 67.7133 116.652V111.45C67.7133 111.294 67.7643 111.165 67.8663 111.063C67.9743 110.955 68.1063 110.901 68.2623 110.901ZM77.6427 110.901C77.7867 110.901 77.9037 110.949 77.9937 111.045C78.0837 111.141 78.1287 111.261 78.1287 111.405V116.652C78.1287 116.808 78.0747 116.94 77.9667 117.048C77.8647 117.15 77.7357 117.201 77.5797 117.201C77.5017 117.201 77.4207 117.189 77.3367 117.165C77.2587 117.135 77.1987 117.096 77.1567 117.048L73.6197 112.557L73.8537 112.413V116.697C73.8537 116.841 73.8057 116.961 73.7097 117.057C73.6197 117.153 73.4997 117.201 73.3497 117.201C73.2057 117.201 73.0887 117.153 72.9987 117.057C72.9087 116.961 72.8637 116.841 72.8637 116.697V111.45C72.8637 111.294 72.9147 111.165 73.0167 111.063C73.1247 110.955 73.2567 110.901 73.4127 110.901C73.4967 110.901 73.5837 110.919 73.6737 110.955C73.7637 110.985 73.8297 111.033 73.8717 111.099L77.3007 115.473L77.1477 115.581V111.405C77.1477 111.261 77.1927 111.141 77.2827 111.045C77.3727 110.949 77.4927 110.901 77.6427 110.901Z" fill="white"/>
<path d="M2.15936 200.808L2.15936 232.221H33.1925V200.808H2.15936Z" stroke="white" stroke-width="1.0984" stroke-miterlimit="10"/>
<path d="M2.15936 106.486L2.15936 137.899H33.1925V106.486H2.15936Z" stroke="white" stroke-width="1.0984" stroke-miterlimit="10"/>
<path d="M24.8047 111.141C26.9681 111.141 28.7215 112.916 28.7215 115.106C28.7215 117.295 26.9681 119.07 24.8047 119.07C22.6413 119.07 20.8879 117.295 20.8879 115.106C20.8879 112.916 22.6425 111.141 24.8047 111.141Z" stroke="white" stroke-width="1.0984" stroke-miterlimit="10"/>
<path d="M24.8042 113.416C25.7267 113.416 26.4756 114.173 26.4756 115.107C26.4756 116.04 25.7279 116.797 24.8042 116.797C23.8816 116.797 23.134 116.04 23.134 115.107C23.134 114.173 23.8816 113.416 24.8042 113.416Z" stroke="white" stroke-width="1.0984" stroke-miterlimit="10"/>
<path d="M10.3242 111.141C12.4876 111.141 14.241 112.916 14.241 115.106C14.241 117.295 12.4876 119.07 10.3242 119.07C8.16081 119.07 6.40741 117.295 6.40741 115.106C6.40741 112.916 8.16201 111.141 10.3242 111.141Z" stroke="white" stroke-width="1.0984" stroke-miterlimit="10"/>
<path d="M10.3237 113.416C11.2462 113.416 11.9951 114.173 11.9951 115.107C11.9951 116.04 11.2474 116.797 10.3237 116.797C9.40117 116.797 8.6535 116.04 8.6535 115.107C8.6535 114.173 9.40117 113.416 10.3237 113.416Z" stroke="white" stroke-width="1.0984" stroke-miterlimit="10"/>
<path d="M24.8047 125.283C26.9681 125.283 28.7215 127.057 28.7215 129.247C28.7215 131.437 26.9681 133.211 24.8047 133.211C22.6413 133.211 20.8879 131.437 20.8879 129.247C20.8879 127.057 22.6425 125.283 24.8047 125.283Z" stroke="white" stroke-width="1.0984" stroke-miterlimit="10"/>
<path d="M24.8042 127.557C25.7267 127.557 26.4756 128.315 26.4756 129.248C26.4756 130.182 25.7279 130.939 24.8042 130.939C23.8816 130.939 23.134 130.182 23.134 129.248C23.134 128.315 23.8816 127.557 24.8042 127.557Z" stroke="white" stroke-width="1.0984" stroke-miterlimit="10"/>
<path d="M10.3242 125.283C12.4876 125.283 14.241 127.057 14.241 129.247C14.241 131.437 12.4876 133.211 10.3242 133.211C8.16081 133.211 6.40741 131.437 6.40741 129.247C6.40741 127.057 8.16201 125.283 10.3242 125.283Z" stroke="white" stroke-width="1.0984" stroke-miterlimit="10"/>
<path d="M10.3237 127.557C11.2462 127.557 11.9951 128.315 11.9951 129.248C11.9951 130.182 11.2474 130.939 10.3237 130.939C9.40117 130.939 8.6535 130.182 8.6535 129.248C8.6535 128.315 9.40117 127.557 10.3237 127.557Z" stroke="white" stroke-width="1.0984" stroke-miterlimit="10"/>
<path d="M2.15936 200.565V138.014H33.1925V200.565" stroke="white" stroke-width="1.0984" stroke-miterlimit="10"/>
<path d="M27.0174 166.905V186.572C27.0174 189.565 24.5947 191.992 21.6065 191.992H12.8262C9.83791 191.992 7.41522 189.565 7.41522 186.572V166.905C7.41522 163.912 9.83791 161.485 12.8262 161.485H21.6065C24.5959 161.485 27.0174 163.912 27.0174 166.905Z" stroke="white" stroke-width="1.0984" stroke-miterlimit="10"/>
<path d="M7.41522 175.38V178.099H15.6962V175.38H7.41522Z" stroke="white" stroke-width="1.0984" stroke-miterlimit="10"/>
<path d="M106.743 232.86L106.743 159.021H81.1345L81.1345 232.86H106.743Z" stroke="white" stroke-width="1.1705" stroke-miterlimit="10"/>
<path d="M81.134 159.021L106.743 232.86" stroke="white" stroke-width="1.1705" stroke-miterlimit="10"/>
<path d="M106.743 159.021L81.134 232.86" stroke="white" stroke-width="1.1705" stroke-miterlimit="10"/>
<path d="M77.4659 92.0826C77.4659 95.5986 74.591 98.4479 71.0431 98.4479C67.4965 98.4479 64.6204 95.5986 64.6204 92.0826" stroke="white" stroke-width="1.193" stroke-miterlimit="10"/>
<path d="M60.5889 92.0826C60.5889 95.5986 57.7128 98.4479 54.1662 98.4479C50.6196 98.4479 47.7435 95.5986 47.7435 92.0826" stroke="white" stroke-width="1.193" stroke-miterlimit="10"/>
<path d="M47.7435 64.3873C47.7435 60.8713 50.6196 58.022 54.1662 58.022C57.7128 58.022 60.5889 60.8713 60.5889 64.3873" stroke="white" stroke-width="1.193" stroke-miterlimit="10"/>
<path d="M64.6204 64.3873C64.6204 60.8713 67.4953 58.022 71.0431 58.022C74.5898 58.022 77.4659 60.8713 77.4659 64.3873" stroke="white" stroke-width="1.193" stroke-miterlimit="10"/>
<path d="M77.2308 64.3851C84.8678 64.3851 91.059 70.5862 91.059 78.2355C91.059 85.8847 84.8678 92.0858 77.2308 92.0858H48.3647C40.7276 92.0858 34.5364 85.8847 34.5364 78.2355C34.5364 70.5862 40.7276 64.3851 48.3647 64.3851H77.2308Z" stroke="white" stroke-width="1.193" stroke-miterlimit="10"/>
<path d="M33.1927 106.487C33.1927 106.487 34.5083 80.1338 1.99921 80.1338" stroke="white" stroke-width="1.0984" stroke-miterlimit="10"/>
<path d="M16.6711 41.7103V45.8375" stroke="white" stroke-miterlimit="10"/>
<path d="M19.384 41.7103V45.8375" stroke="white" stroke-miterlimit="10"/>
<path d="M22.0969 41.7103V45.8375" stroke="white" stroke-miterlimit="10"/>
<path d="M24.8117 41.7103V45.8375" stroke="white" stroke-miterlimit="10"/>
<path d="M27.5246 41.7103V45.8375" stroke="white" stroke-miterlimit="10"/>
<path d="M30.2375 41.7103V45.8375" stroke="white" stroke-miterlimit="10"/>
<path d="M32.9504 41.7103V45.8375" stroke="white" stroke-miterlimit="10"/>
<path d="M35.6633 41.7103V45.8375" stroke="white" stroke-miterlimit="10"/>
<path d="M38.3762 41.7103V45.8375" stroke="white" stroke-miterlimit="10"/>
<path d="M41.091 41.7103V45.8375" stroke="white" stroke-miterlimit="10"/>
<path d="M43.8039 41.7103V45.8375" stroke="white" stroke-miterlimit="10"/>
<path d="M46.5168 41.7103V45.8375" stroke="white" stroke-miterlimit="10"/>
<path d="M49.2316 41.7103V45.8375" stroke="white" stroke-miterlimit="10"/>
<path d="M51.9445 41.7103V45.8375" stroke="white" stroke-miterlimit="10"/>
<path d="M54.6574 41.7103V45.8375" stroke="white" stroke-miterlimit="10"/>
<path d="M57.3703 41.7103V45.8375" stroke="white" stroke-miterlimit="10"/>
<path d="M60.0832 41.7103V45.8375" stroke="white" stroke-miterlimit="10"/>
<path d="M62.7961 41.7103V45.8375" stroke="white" stroke-miterlimit="10"/>
<path d="M65.5109 41.7103V45.8375" stroke="white" stroke-miterlimit="10"/>
<path d="M68.2238 41.7103V45.8375" stroke="white" stroke-miterlimit="10"/>
<path d="M70.9367 41.7103V45.8375" stroke="white" stroke-miterlimit="10"/>
<path d="M73.6496 41.7103V45.8375" stroke="white" stroke-miterlimit="10"/>
<path d="M76.3644 41.7103V45.8375" stroke="white" stroke-miterlimit="10"/>
<path d="M79.0793 41.7103V45.8375" stroke="white" stroke-miterlimit="10"/>
<path d="M81.7883 41.7103V45.8375" stroke="white" stroke-miterlimit="10"/>
<path d="M84.5031 41.7103V45.8375" stroke="white" stroke-miterlimit="10"/>
<path d="M87.216 41.7103V45.8375" stroke="white" stroke-miterlimit="10"/>
<path d="M89.9289 41.7103V45.8375" stroke="white" stroke-miterlimit="10"/>
<path d="M95.4835 46.5292V40.8173L16.2824 40.8173V46.5292L95.4835 46.5292Z" stroke="white" stroke-width="1.4833" stroke-miterlimit="10"/>
<path d="M19.384 41.7103V45.8375" stroke="white" stroke-miterlimit="10"/>
<path d="M22.0969 41.7103V45.8375" stroke="white" stroke-miterlimit="10"/>
<path d="M24.8117 41.7103V45.8375" stroke="white" stroke-miterlimit="10"/>
<path d="M27.5246 41.7103V45.8375" stroke="white" stroke-miterlimit="10"/>
<path d="M30.2375 41.7103V45.8375" stroke="white" stroke-miterlimit="10"/>
<path d="M32.9504 41.7103V45.8375" stroke="white" stroke-miterlimit="10"/>
<path d="M35.6633 41.7103V45.8375" stroke="white" stroke-miterlimit="10"/>
<path d="M38.3762 41.7103V45.8375" stroke="white" stroke-miterlimit="10"/>
<path d="M41.091 41.7103V45.8375" stroke="white" stroke-miterlimit="10"/>
<path d="M43.8039 41.7103V45.8375" stroke="white" stroke-miterlimit="10"/>
<path d="M46.5168 41.7103V45.8375" stroke="white" stroke-miterlimit="10"/>
<path d="M49.2316 41.7103V45.8375" stroke="white" stroke-miterlimit="10"/>
<path d="M51.9445 41.7103V45.8375" stroke="white" stroke-miterlimit="10"/>
<path d="M54.6574 41.7103V45.8375" stroke="white" stroke-miterlimit="10"/>
<path d="M57.3703 41.7103V45.8375" stroke="white" stroke-miterlimit="10"/>
<path d="M60.0832 41.7103V45.8375" stroke="white" stroke-miterlimit="10"/>
<path d="M62.7961 41.7103V45.8375" stroke="white" stroke-miterlimit="10"/>
<path d="M65.5109 41.7103V45.8375" stroke="white" stroke-miterlimit="10"/>
<path d="M68.2238 41.7103V45.8375" stroke="white" stroke-miterlimit="10"/>
<path d="M70.9367 41.7103V45.8375" stroke="white" stroke-miterlimit="10"/>
<path d="M73.6496 41.7103V45.8375" stroke="white" stroke-miterlimit="10"/>
<path d="M76.3644 41.7103V45.8375" stroke="white" stroke-miterlimit="10"/>
<path d="M79.0793 41.7103V45.8375" stroke="white" stroke-miterlimit="10"/>
<path d="M81.7883 41.7103V45.8375" stroke="white" stroke-miterlimit="10"/>
<path d="M84.5031 41.7103V45.8375" stroke="white" stroke-miterlimit="10"/>
<path d="M87.216 41.7103V45.8375" stroke="white" stroke-miterlimit="10"/>
<path d="M89.9289 41.7103V45.8375" stroke="white" stroke-miterlimit="10"/>
<path d="M92.5676 41.7103V45.8375" stroke="white" stroke-miterlimit="10"/>
<path d="M402.001 31.6455H396.298V80.9157H402.001V31.6455Z" stroke="white" stroke-width="1.4833" stroke-miterlimit="10"/>
<path d="M401.11 34.7534H396.989" stroke="white" stroke-miterlimit="10"/>
<path d="M401.11 37.4707H396.989" stroke="white" stroke-miterlimit="10"/>
<path d="M401.11 40.1889H396.989" stroke="white" stroke-miterlimit="10"/>
<path d="M401.11 42.9061H396.989" stroke="white" stroke-miterlimit="10"/>
<path d="M401.11 45.6238H396.989" stroke="white" stroke-miterlimit="10"/>
<path d="M401.11 48.341H396.989" stroke="white" stroke-miterlimit="10"/>
<path d="M401.11 51.0592H396.989" stroke="white" stroke-miterlimit="10"/>
<path d="M401.11 53.7769H396.989" stroke="white" stroke-miterlimit="10"/>
<path d="M401.11 56.4941H396.989" stroke="white" stroke-miterlimit="10"/>
<path d="M401.11 59.2123H396.989" stroke="white" stroke-miterlimit="10"/>
<path d="M401.11 61.9295H396.989" stroke="white" stroke-miterlimit="10"/>
<path d="M401.11 64.6472H396.989" stroke="white" stroke-miterlimit="10"/>
<path d="M401.11 67.365H396.989" stroke="white" stroke-miterlimit="10"/>
<path d="M401.11 70.0827H396.989" stroke="white" stroke-miterlimit="10"/>
<path d="M401.11 72.8004H396.989" stroke="white" stroke-miterlimit="10"/>
<path d="M401.11 75.5176H396.989" stroke="white" stroke-miterlimit="10"/>
<path d="M401.11 78.2358H396.989" stroke="white" stroke-miterlimit="10"/>
<path d="M401.11 80.953H396.989" stroke="white" stroke-miterlimit="10"/>
<path d="M401.11 34.7534H396.989" stroke="white" stroke-miterlimit="10"/>
<path d="M401.11 37.4707H396.989" stroke="white" stroke-miterlimit="10"/>
<path d="M401.11 40.1889H396.989" stroke="white" stroke-miterlimit="10"/>
<path d="M401.11 42.9061H396.989" stroke="white" stroke-miterlimit="10"/>
<path d="M401.11 45.6238H396.989" stroke="white" stroke-miterlimit="10"/>
<path d="M401.11 48.341H396.989" stroke="white" stroke-miterlimit="10"/>
<path d="M401.11 51.0592H396.989" stroke="white" stroke-miterlimit="10"/>
<path d="M401.11 53.7769H396.989" stroke="white" stroke-miterlimit="10"/>
<path d="M401.11 56.4941H396.989" stroke="white" stroke-miterlimit="10"/>
<path d="M401.11 59.2123H396.989" stroke="white" stroke-miterlimit="10"/>
<path d="M401.11 61.9295H396.989" stroke="white" stroke-miterlimit="10"/>
<path d="M401.11 64.6472H396.989" stroke="white" stroke-miterlimit="10"/>
<path d="M401.11 67.365H396.989" stroke="white" stroke-miterlimit="10"/>
<path d="M401.11 70.0827H396.989" stroke="white" stroke-miterlimit="10"/>
<path d="M401.11 72.8004H396.989" stroke="white" stroke-miterlimit="10"/>
<path d="M401.11 75.5176H396.989" stroke="white" stroke-miterlimit="10"/>
<path d="M401.11 78.2358H396.989" stroke="white" stroke-miterlimit="10"/>
<path d="M401.11 80.953H396.989" stroke="white" stroke-miterlimit="10"/>
<path d="M400.906 239.939H396.786" stroke="white" stroke-miterlimit="10"/>
<path d="M400.906 242.657H396.786" stroke="white" stroke-miterlimit="10"/>
<path d="M400.906 245.375H396.786" stroke="white" stroke-miterlimit="10"/>
<path d="M400.906 248.092H396.786" stroke="white" stroke-miterlimit="10"/>
<path d="M400.906 250.811H396.786" stroke="white" stroke-miterlimit="10"/>
<path d="M400.906 253.528H396.786" stroke="white" stroke-miterlimit="10"/>
<path d="M400.906 256.246H396.786" stroke="white" stroke-miterlimit="10"/>
<path d="M400.906 258.963H396.786" stroke="white" stroke-miterlimit="10"/>
<path d="M400.906 261.68H396.786" stroke="white" stroke-miterlimit="10"/>
<path d="M400.906 264.399H396.786" stroke="white" stroke-miterlimit="10"/>
<path d="M400.906 267.116H396.786" stroke="white" stroke-miterlimit="10"/>
<path d="M400.906 269.834H396.786" stroke="white" stroke-miterlimit="10"/>
<path d="M400.906 272.551H396.786" stroke="white" stroke-miterlimit="10"/>
<path d="M400.906 275.27H396.786" stroke="white" stroke-miterlimit="10"/>
<path d="M400.906 277.987H396.786" stroke="white" stroke-miterlimit="10"/>
<path d="M400.906 280.704H396.786" stroke="white" stroke-miterlimit="10"/>
<path d="M400.906 283.422H396.786" stroke="white" stroke-miterlimit="10"/>
<path d="M400.906 286.14H396.786" stroke="white" stroke-miterlimit="10"/>
<path d="M400.906 288.857H396.786" stroke="white" stroke-miterlimit="10"/>
<path d="M400.906 291.575H396.786" stroke="white" stroke-miterlimit="10"/>
<path d="M400.906 294.293H396.786" stroke="white" stroke-miterlimit="10"/>
<path d="M400.906 297.011H396.786" stroke="white" stroke-miterlimit="10"/>
<path d="M400.906 299.728H396.786" stroke="white" stroke-miterlimit="10"/>
<path d="M400.906 302.445H396.786" stroke="white" stroke-miterlimit="10"/>
<path d="M400.906 305.163H396.786" stroke="white" stroke-miterlimit="10"/>
<path d="M400.906 307.882H396.786" stroke="white" stroke-miterlimit="10"/>
<path d="M400.906 310.599H396.786" stroke="white" stroke-miterlimit="10"/>
<path d="M396.097 316.159H401.8V236.832H396.097V316.159Z" stroke="white" stroke-width="1.4833" stroke-miterlimit="10"/>
<path d="M400.906 239.939H396.786" stroke="white" stroke-miterlimit="10"/>
<path d="M400.906 242.657H396.786" stroke="white" stroke-miterlimit="10"/>
<path d="M400.906 245.375H396.786" stroke="white" stroke-miterlimit="10"/>
<path d="M400.906 248.092H396.786" stroke="white" stroke-miterlimit="10"/>
<path d="M400.906 250.811H396.786" stroke="white" stroke-miterlimit="10"/>
<path d="M400.906 253.528H396.786" stroke="white" stroke-miterlimit="10"/>
<path d="M400.906 256.246H396.786" stroke="white" stroke-miterlimit="10"/>
<path d="M400.906 258.963H396.786" stroke="white" stroke-miterlimit="10"/>
<path d="M400.906 261.68H396.786" stroke="white" stroke-miterlimit="10"/>
<path d="M400.906 264.399H396.786" stroke="white" stroke-miterlimit="10"/>
<path d="M400.906 267.116H396.786" stroke="white" stroke-miterlimit="10"/>
<path d="M400.906 269.834H396.786" stroke="white" stroke-miterlimit="10"/>
<path d="M400.906 272.551H396.786" stroke="white" stroke-miterlimit="10"/>
<path d="M400.906 275.27H396.786" stroke="white" stroke-miterlimit="10"/>
<path d="M400.906 277.987H396.786" stroke="white" stroke-miterlimit="10"/>
<path d="M400.906 280.704H396.786" stroke="white" stroke-miterlimit="10"/>
<path d="M400.906 283.422H396.786" stroke="white" stroke-miterlimit="10"/>
<path d="M400.906 286.14H396.786" stroke="white" stroke-miterlimit="10"/>
<path d="M400.906 288.857H396.786" stroke="white" stroke-miterlimit="10"/>
<path d="M400.906 291.575H396.786" stroke="white" stroke-miterlimit="10"/>
<path d="M400.906 294.293H396.786" stroke="white" stroke-miterlimit="10"/>
<path d="M400.906 297.011H396.786" stroke="white" stroke-miterlimit="10"/>
<path d="M400.906 299.728H396.786" stroke="white" stroke-miterlimit="10"/>
<path d="M400.906 302.445H396.786" stroke="white" stroke-miterlimit="10"/>
<path d="M400.906 305.163H396.786" stroke="white" stroke-miterlimit="10"/>
<path d="M400.906 307.882H396.786" stroke="white" stroke-miterlimit="10"/>
<path d="M400.906 310.599H396.786" stroke="white" stroke-miterlimit="10"/>
<path d="M400.906 313.24H396.786" stroke="white" stroke-miterlimit="10"/>
</svg>
