<svg width="95" height="32" viewBox="0 0 95 32" fill="none" xmlns="http://www.w3.org/2000/svg">
<g clip-path="url(#clip0_146_15015)">
<mask id="mask0_146_15015" style="mask-type:luminance" maskUnits="userSpaceOnUse" x="0" y="4" width="24" height="24">
<path d="M0 4H24V28H0V4Z" fill="white"/>
</mask>
<g mask="url(#mask0_146_15015)">
<path d="M23.0625 23.375V14.1562L12 4.9375L0.9375 14.1562V27.0625H11.9816" stroke="black" stroke-width="2" stroke-miterlimit="10" stroke-linecap="round" stroke-linejoin="round"/>
<path d="M16.5918 18.752C16.5918 21.2977 14.5281 23.3613 11.9825 23.3613C9.43677 23.3613 7.37305 21.2977 7.37305 18.752C7.37305 16.2063 9.43677 14.1426 11.9825 14.1426C14.5281 14.1426 16.5918 16.2063 16.5918 18.752Z" stroke="black" stroke-width="2" stroke-miterlimit="10" stroke-linecap="round" stroke-linejoin="round"/>
<path d="M14.7461 22.4395L19.3691 27.0625" stroke="black" stroke-width="2" stroke-miterlimit="10" stroke-linecap="round" stroke-linejoin="round"/>
</g>
</g>
<path d="M29.168 24.5V13.812H33.584C34.8853 13.812 35.8773 14.084 36.56 14.628C37.2533 15.1613 37.6 15.972 37.6 17.06C37.6 17.9667 37.3653 18.6653 36.896 19.156C36.4373 19.6467 35.7813 19.9827 34.928 20.164L38.144 24.5H35.856L32.912 20.308H31.12V24.5H29.168ZM31.12 18.74H33.248C34.0587 18.74 34.656 18.612 35.04 18.356C35.4347 18.0893 35.632 17.6627 35.632 17.076C35.632 16.468 35.4453 16.036 35.072 15.78C34.6987 15.524 34.0907 15.396 33.248 15.396H31.12V18.74ZM43.0969 24.66C42.3289 24.66 41.6355 24.5107 41.0169 24.212C40.3982 23.9133 39.9022 23.476 39.5289 22.9C39.1662 22.3133 38.9849 21.5933 38.9849 20.74C38.9849 19.94 39.1555 19.2467 39.4969 18.66C39.8489 18.0733 40.3129 17.62 40.8889 17.3C41.4755 16.98 42.1315 16.82 42.8569 16.82C43.6035 16.82 44.2542 16.964 44.8089 17.252C45.3635 17.5293 45.7955 17.9133 46.1049 18.404C46.4142 18.8947 46.5689 19.4547 46.5689 20.084C46.5689 20.2653 46.5422 20.468 46.4889 20.692C46.4355 20.916 46.3662 21.0973 46.2809 21.236H40.8569C40.9102 21.652 41.0382 22.004 41.2409 22.292C41.4542 22.5693 41.7315 22.7827 42.0729 22.932C42.4142 23.0707 42.8142 23.14 43.2729 23.14C43.7422 23.14 44.1689 23.0707 44.5529 22.932C44.9369 22.7827 45.2995 22.5853 45.6409 22.34L46.2489 23.652C45.8115 23.9827 45.3262 24.2333 44.7929 24.404C44.2702 24.5747 43.7049 24.66 43.0969 24.66ZM40.8569 19.956H44.6809C44.6915 19.924 44.6969 19.8973 44.6969 19.876C44.6969 19.844 44.6969 19.8173 44.6969 19.796C44.6969 19.4867 44.6329 19.22 44.5049 18.996C44.3769 18.772 44.1795 18.6013 43.9129 18.484C43.6569 18.356 43.3209 18.292 42.9049 18.292C42.5635 18.292 42.2489 18.3613 41.9609 18.5C41.6835 18.628 41.4489 18.8147 41.2569 19.06C41.0649 19.3053 40.9315 19.604 40.8569 19.956ZM46.5853 24.5L49.3853 20.612L46.7453 16.98H48.8253L50.5373 19.508L52.2653 16.98H54.3453L51.7053 20.612L54.5052 24.5H52.4253L50.5373 21.828L48.6653 24.5H46.5853ZM59.4361 24.66C58.6788 24.66 57.9908 24.5533 57.3721 24.34C56.7535 24.116 56.1348 23.7533 55.5161 23.252L56.2521 21.748C56.8281 22.1853 57.3775 22.5053 57.9001 22.708C58.4228 22.9107 58.9348 23.012 59.4361 23.012C60.1401 23.012 60.6788 22.8733 61.0521 22.596C61.4361 22.3187 61.6281 21.9293 61.6281 21.428C61.6281 21.0867 61.5108 20.7933 61.2761 20.548C61.0415 20.3027 60.6948 20.1373 60.2361 20.052L58.6201 19.748C57.6388 19.5667 56.9295 19.2413 56.4921 18.772C56.0548 18.292 55.8361 17.7107 55.8361 17.028C55.8361 16.3987 55.9748 15.8333 56.2521 15.332C56.5295 14.82 56.9508 14.4147 57.5161 14.116C58.0815 13.8067 58.8015 13.652 59.6761 13.652C60.3055 13.652 60.9188 13.7373 61.5161 13.908C62.1135 14.0787 62.7055 14.388 63.2921 14.836L62.5561 16.34C62.0655 16.02 61.5908 15.7693 61.1321 15.588C60.6735 15.396 60.2041 15.3 59.7241 15.3C59.0841 15.3 58.6041 15.4333 58.2841 15.7C57.9748 15.956 57.8201 16.308 57.8201 16.756C57.8201 17.0973 57.9375 17.3693 58.1721 17.572C58.4068 17.7747 58.7535 17.9187 59.2121 18.004L60.8281 18.308C61.7988 18.4893 62.5028 18.852 62.9401 19.396C63.3881 19.94 63.6121 20.548 63.6121 21.22C63.6121 22.2653 63.2548 23.1027 62.5401 23.732C61.8255 24.3507 60.7908 24.66 59.4361 24.66ZM69.0169 24.66C68.2275 24.66 67.5289 24.5 66.9209 24.18C66.3235 23.8493 65.8489 23.3907 65.4969 22.804C65.1555 22.2173 64.9849 21.5293 64.9849 20.74C64.9849 19.9507 65.1555 19.2627 65.4969 18.676C65.8489 18.0893 66.3235 17.636 66.9209 17.316C67.5289 16.9853 68.2275 16.82 69.0169 16.82C69.5609 16.82 70.0569 16.9 70.5049 17.06C70.9529 17.2093 71.3635 17.428 71.7369 17.716L71.0809 19.092C70.7502 18.8573 70.4089 18.6867 70.0569 18.58C69.7155 18.4627 69.3689 18.404 69.0169 18.404C68.5795 18.404 68.2009 18.5 67.8809 18.692C67.5609 18.8733 67.3102 19.14 67.1289 19.492C66.9475 19.8333 66.8569 20.2493 66.8569 20.74C66.8569 21.22 66.9475 21.636 67.1289 21.988C67.3102 22.34 67.5609 22.612 67.8809 22.804C68.2009 22.9853 68.5795 23.076 69.0169 23.076C69.3689 23.076 69.7155 23.0227 70.0569 22.916C70.4089 22.7987 70.7502 22.6227 71.0809 22.388L71.7369 23.764C71.3635 24.052 70.9529 24.276 70.5049 24.436C70.0569 24.5853 69.5609 24.66 69.0169 24.66ZM75.8158 24.66C75.2824 24.66 74.8024 24.5747 74.3758 24.404C73.9598 24.2333 73.6291 23.9827 73.3838 23.652C73.1491 23.3107 73.0318 22.8947 73.0318 22.404C73.0318 21.9027 73.1544 21.4973 73.3997 21.188C73.6451 20.868 73.9758 20.6227 74.3918 20.452C74.8078 20.2707 75.2824 20.148 75.8158 20.084L78.3598 19.764C78.2958 19.2733 78.0931 18.916 77.7518 18.692C77.4211 18.468 77.0211 18.356 76.5518 18.356C76.1998 18.356 75.8318 18.4253 75.4478 18.564C75.0744 18.692 74.6584 18.9 74.1998 19.188L73.5758 17.844C74.0344 17.5133 74.5198 17.2627 75.0318 17.092C75.5544 16.9107 76.0878 16.82 76.6318 16.82C77.8051 16.82 78.6958 17.0813 79.3038 17.604C79.9118 18.116 80.2158 18.8893 80.2158 19.924V24.5H78.4558V23.524C78.1784 23.9187 77.8211 24.2067 77.3838 24.388C76.9464 24.5693 76.4238 24.66 75.8158 24.66ZM76.3278 23.188C76.7651 23.188 77.1331 23.1027 77.4318 22.932C77.7411 22.7613 77.9758 22.532 78.1358 22.244C78.3064 21.956 78.3918 21.6573 78.3918 21.348V21.06L76.3918 21.316C75.8904 21.38 75.5171 21.4867 75.2718 21.636C75.0264 21.7853 74.9038 22.0093 74.9038 22.308C74.9038 22.596 75.0264 22.8147 75.2718 22.964C75.5171 23.1133 75.8691 23.188 76.3278 23.188ZM82.3849 24.5V13.812H84.2089V24.5H82.3849ZM90.0969 24.66C89.3289 24.66 88.6355 24.5107 88.0169 24.212C87.3982 23.9133 86.9022 23.476 86.5289 22.9C86.1662 22.3133 85.9849 21.5933 85.9849 20.74C85.9849 19.94 86.1555 19.2467 86.4969 18.66C86.8489 18.0733 87.3129 17.62 87.8889 17.3C88.4755 16.98 89.1315 16.82 89.8569 16.82C90.6035 16.82 91.2542 16.964 91.8089 17.252C92.3635 17.5293 92.7955 17.9133 93.1049 18.404C93.4142 18.8947 93.5689 19.4547 93.5689 20.084C93.5689 20.2653 93.5422 20.468 93.4889 20.692C93.4355 20.916 93.3662 21.0973 93.2809 21.236H87.8569C87.9102 21.652 88.0382 22.004 88.2409 22.292C88.4542 22.5693 88.7315 22.7827 89.0729 22.932C89.4142 23.0707 89.8142 23.14 90.2729 23.14C90.7422 23.14 91.1689 23.0707 91.5529 22.932C91.9369 22.7827 92.2995 22.5853 92.6409 22.34L93.2489 23.652C92.8115 23.9827 92.3262 24.2333 91.7929 24.404C91.2702 24.5747 90.7049 24.66 90.0969 24.66ZM87.8569 19.956H91.6809C91.6915 19.924 91.6969 19.8973 91.6969 19.876C91.6969 19.844 91.6969 19.8173 91.6969 19.796C91.6969 19.4867 91.6329 19.22 91.5049 18.996C91.3769 18.772 91.1795 18.6013 90.9129 18.484C90.6569 18.356 90.3209 18.292 89.9049 18.292C89.5635 18.292 89.2489 18.3613 88.9609 18.5C88.6835 18.628 88.4489 18.8147 88.2569 19.06C88.0649 19.3053 87.9315 19.604 87.8569 19.956Z" fill="black"/>
<defs>
<clipPath id="clip0_146_15015">
<rect width="24" height="24" fill="white" transform="translate(0 4)"/>
</clipPath>
</defs>
</svg>
