<svg width="25" height="25" viewBox="0 0 25 25" fill="none" xmlns="http://www.w3.org/2000/svg">
<path d="M18.5199 2.5H6.14659C5.13577 2.50176 4.16686 2.90409 3.4521 3.61885C2.73734 4.3336 2.33501 5.30252 2.33325 6.31333V18.6867C2.33501 19.6975 2.73734 20.6664 3.4521 21.3812C4.16686 22.0959 5.13577 22.4982 6.14659 22.5H18.5199C19.5307 22.4982 20.4996 22.0959 21.2144 21.3812C21.9292 20.6664 22.3315 19.6975 22.3333 18.6867V6.31333C22.3315 5.30252 21.9292 4.3336 21.2144 3.61885C20.4996 2.90409 19.5307 2.50176 18.5199 2.5ZM20.9999 18.6867C20.9982 19.3439 20.7363 19.9736 20.2716 20.4383C19.8069 20.9031 19.1771 21.1649 18.5199 21.1667H6.14659C5.48939 21.1649 4.85961 20.9031 4.3949 20.4383C3.93019 19.9736 3.66834 19.3439 3.66659 18.6867V6.31333C3.66834 5.65614 3.93019 5.02636 4.3949 4.56165C4.85961 4.09694 5.48939 3.83509 6.14659 3.83333H18.5199C19.1771 3.83509 19.8069 4.09694 20.2716 4.56165C20.7363 5.02636 20.9982 5.65614 20.9999 6.31333V18.6867Z" fill="#100E2C"/>
<path d="M18.9326 13.8492C18.7381 13.8492 18.5516 13.9264 18.4141 14.064C18.2765 14.2015 18.1993 14.388 18.1993 14.5825V17.3325L7.49993 6.63317H10.2499C10.4444 6.63317 10.631 6.55591 10.7685 6.41838C10.906 6.28086 10.9833 6.09433 10.9833 5.89984C10.9833 5.70535 10.906 5.51882 10.7685 5.38129C10.631 5.24377 10.4444 5.1665 10.2499 5.1665H5.50527C5.37107 5.1665 5.24237 5.21981 5.14747 5.31471C5.05258 5.4096 4.99927 5.5383 4.99927 5.6725V10.4172C4.99927 10.6117 5.07653 10.7982 5.21406 10.9357C5.35158 11.0732 5.53811 11.1505 5.7326 11.1505C5.92709 11.1505 6.11362 11.0732 6.25115 10.9357C6.38867 10.7982 6.46593 10.6117 6.46593 10.4172V7.66717L17.1653 18.3665H14.4153C14.2208 18.3665 14.0342 18.4438 13.8967 18.5813C13.7592 18.7188 13.6819 18.9053 13.6819 19.0998C13.6819 19.2943 13.7592 19.4809 13.8967 19.6184C14.0342 19.7559 14.2208 19.8332 14.4153 19.8332H19.1599C19.2941 19.8332 19.4228 19.7799 19.5177 19.685C19.6126 19.5901 19.6659 19.4614 19.6659 19.3272V14.5825C19.6659 14.388 19.5887 14.2015 19.4511 14.064C19.3136 13.9264 19.1271 13.8492 18.9326 13.8492Z" fill="#100E2C"/>
</svg>
